<?xml version="1.0" encoding="utf-8"?>
<!-- Generator: Adobe Illustrator 25.0.1, SVG Export Plug-In . SVG Version: 6.00 Build 0)  -->
<svg version="1.1" id="Capa_1" xmlns="http://www.w3.org/2000/svg" xmlns:xlink="http://www.w3.org/1999/xlink" x="0px" y="0px"
	 viewBox="0 0 512 512" style="enable-background:new 0 0 512 512;" xml:space="preserve">
<style type="text/css">
	.st0{fill:#29AAE1;}
</style>
<g>
	<path class="st0" d="M160.4,172c-14.3,8.3-24.2,20.2-27.4,31.3c-4-6-7.1-12.9-9.1-20.4c-8.4-31.3,5.7-62.2,31.4-69.2
		c15.2-4,31.1,1.2,43.2,12.6c-12.4-13.2-29.5-19.5-45.8-15.2c-25.7,6.9-39.8,37.8-31.4,69.2c2.4,9,6.4,17,11.5,23.7
		c-0.1,0.5-0.3,1-0.4,1.5c0.2-0.4,0.4-0.8,0.6-1.2c2.1,2.7,4.4,5.3,6.8,7.6c-2.4-2.5-4.5-5.3-6.5-8.2c5.1-10.1,15.3-20.6,28.9-28.6
		c14.4-8.4,29.5-12.2,41.1-11.1C191.9,160.5,175.7,163.1,160.4,172z"/>
	<path class="st0" d="M354.6,111.2c-16.3-4.3-33.3,2-45.8,15.2c12.2-11.4,28-16.7,43.2-12.6c25.7,6.9,39.8,37.9,31.4,69.2
		c-2,7.6-5.2,14.4-9.1,20.4c-3.3-11.1-13.2-22.9-27.4-31.3c-15.2-8.9-31.5-11.5-43-8c11.7-1.1,26.7,2.7,41.1,11.1
		c13.6,8,23.8,18.5,29,28.6c-2,3-4.2,5.7-6.5,8.2c2.4-2.3,4.7-4.9,6.8-7.6c0.2,0.4,0.4,0.8,0.6,1.2c-0.1-0.5-0.2-1-0.4-1.5
		c5.1-6.7,9.1-14.8,11.5-23.7C394.4,149,380.3,118.1,354.6,111.2z"/>
	<path class="st0" d="M473.3,74.7c-20.2-4.6-41.5,8-56.5,30.4C389,44.3,327.7,2.1,256.6,2.1C185.3,2.1,124,44.4,96.2,105.2
		C81.3,82.7,59.9,70,39.7,74.7C9.8,81.5-6.2,123.5,4.1,168.5c7.6,33.1,27.2,58.6,48.9,67c-7.1,7.8-12.9,17.7-15.1,29.9
		c0,0,3.5-10.2,23-17.6c0,0-17,21.1-12.5,53.5c0,0,5.1-13.4,15.7-18.6c0,0-9.8,18.3,4.9,39.2c0,0,0-0.1,0-0.1
		c5.6,50,59.2,91.6,131.5,106c-0.6,31.7-9,60.6-22.6,82.9h5.6c12.7-22.5,20.6-51,21.3-82.1c16.4,3,33.7,4.6,51.6,4.6
		c20,0,39.2-2,57.2-5.7c0.5,31.5,8.4,60.3,21.3,83.1h5.6c-13.8-22.5-22.3-51.9-22.7-84.1c69.4-15.3,120.4-56,125.9-104.7
		c14.6-20.9,4.9-39.2,4.9-39.2c10.6,5.1,15.7,18.6,15.7,18.6c4.5-32.3-12.5-53.5-12.5-53.5c19.5,7.4,23,17.6,23,17.6
		c-2.2-12.2-8-22.1-15.1-29.9c21.8-8.4,41.5-33.9,49-67.1C519.2,123.5,503.2,81.5,473.3,74.7z M436.4,132.6
		c7.9-9.6,18.3-14.5,27.6-11.7c14.2,4.4,20.5,25.3,13.9,46.7c-6.6,21.4-23.5,35.3-37.7,30.9c-2.6-0.8-5-2.2-7-4
		c0.5-1.6,0.9-3.2,1.3-4.9c1.3,0.6,2.7,0.8,4.1,0.7c6.6-0.5,11.2-9,10.4-18.9c-0.8-9.9-6.7-17.4-13.3-16.9
		c-0.6-4.1-1.5-8.1-2.6-11.9C434,139.2,435.1,135.8,436.4,132.6z M429.9,203.7c2.7,7.2,6.5,13,11.2,16.6c-5.7-3.5-11.1-6-15.4-7.8
		C427.3,209.7,428.7,206.7,429.9,203.7z M436.7,168.8c0-4-0.3-7.9-0.8-11.8c5.6-0.3,10.7,6.2,11.4,14.7c0.7,8.6-3.3,15.9-9,16.4
		c-1.2,0.1-2.3-0.1-3.4-0.6C436,181.4,436.7,175.2,436.7,168.8z M432.8,168.8c0,15.4-3.9,29.9-10.8,42.3c-3.5-1.3-5.7-1.9-5.7-1.9
		c7,9.6,11.8,25.3,11.8,25.3c-5.1-7-14.5-10.8-14.5-10.8c12.1,16.8,8.7,32.2,8.7,32.2l1.1,2.3c-24.4-30.2-68.3-53-121-61.4
		c-5.8-1.3-11.8-2.3-17.9-3.1c-6.2-6.1-16.4-10.1-27.9-10.1c-11.5,0-21.7,4-27.9,10.1c-6,0.8-11.8,1.8-17.6,3
		c-53.2,8.4-97.4,31.2-121.9,61.6l1.1-2.3c0,0-3.4-15.5,8.7-32.2c0,0-9.4,3.7-14.5,10.8c0,0,4.8-15.7,11.8-25.3c0,0-2.2,0.6-5.8,2
		c-6.9-12.4-10.8-26.8-10.8-42.3c0-45.8,34.5-82.9,77.1-82.9c18.9,0,36.1,7.3,49.5,19.4h0c13.8,11.6,31.1,18.6,50,18.6
		c20.3,0,38.9-8.1,53.1-21.3l-0.2,0c12.9-10.4,28.9-16.6,46.3-16.6C398.3,85.9,432.8,123,432.8,168.8z M76.6,132.6
		c1.2,3.1,2.3,6.2,3.3,9.5c-1.2,4-2.1,8.2-2.8,12.4c-6.4-0.2-12.2,7.2-13,16.9c-0.8,9.9,3.9,18.3,10.4,18.9c1.3,0.1,2.6-0.1,3.9-0.6
		c0.4,1.7,0.8,3.3,1.3,5c-2,1.7-4.3,3-6.8,3.8c-14.2,4.4-31.1-9.5-37.7-30.9c-6.6-21.4-0.4-42.4,13.9-46.7
		C58.3,118.1,68.7,123,76.6,132.6z M77.9,187.5c-1,0.4-2.1,0.6-3.2,0.5c-5.7-0.5-9.7-7.8-9-16.4c0.7-8.3,5.6-14.7,11.1-14.7
		c-0.5,3.9-0.8,7.8-0.8,11.8C76,175.2,76.7,181.5,77.9,187.5z M87,212.5c-4.2,1.7-9.3,4.2-14.7,7.5c4.5-3.6,8.1-9,10.7-15.9
		C84.2,207,85.5,209.8,87,212.5z M93,115.4c0.1-0.1,0.1-0.2,0.2-0.2C93.2,115.3,93.1,115.4,93,115.4z M95.8,111.9
		c0.1-0.1,0.2-0.2,0.2-0.3C95.9,111.7,95.8,111.8,95.8,111.9z M98.7,108.4c0.1-0.1,0.1-0.2,0.2-0.2
		C98.8,108.3,98.7,108.4,98.7,108.4z M256.6,7.3c68.6,0,127.7,40.3,155,98.5c-14.5-14.9-34.2-24.1-55.9-24.1
		c-20.8,0-39.8,8.5-54.2,22.4c-12.7,9.8-28.2,15.6-45,15.6c-19,0-36.3-7.4-49.7-19.5h0c-13.7-11.5-31-18.4-49.8-18.4
		c-21.3,0-40.6,8.8-55.1,23.3C129.4,47.2,188.3,7.3,256.6,7.3z M7,167.8c-9.7-42.6,5.3-82.3,33.6-88.8c19.3-4.4,39.8,7.9,54,29.6
		c-1.5,3.4-2.9,6.9-4.1,10.4c-3.8,5.8-6.9,12.1-9.3,18.9c-10.1-30.8-30.2-51.4-47.8-47.3c-8.7,2-15.4,9.7-19.3,20.8
		c4-9.5,10.2-16,18.1-17.8c14.4-3.3,30.4,9.9,41,31.5c-7.8-7.1-17-10.3-25.3-7.7c-15.6,4.8-22.3,27.6-15.1,51
		c7.2,23.4,25.6,38.5,41.2,33.7c2.5-0.8,4.8-2.1,6.9-3.7c0.2,0.4,0.3,0.9,0.5,1.3c-3.8,11.8-10.6,20.1-19.7,22.1
		c-7.9,1.8-16.4-1.4-24.1-8.2C45.9,222,55.2,226,64,224.1c1.5-0.4,3-0.9,4.5-1.6c-4.1,2.8-8.3,6-12.2,9.8
		C34.5,225.5,14.5,200.6,7,167.8z M67.3,280.2c0,0-12.6,0.6-17.7,14.9c0,0-1.7-24.1,16-50.6c0,0-14.1,1.5-23.5,12.2
		c0,0,13.5-30.7,49.6-43.9c0,0-8.6,11.8-10.1,27.6c0,0,4.8-7.1,11.7-11.3c0,0-9.6,10.3-4.8,30c0.1-0.1,0.1-0.2,0.2-0.3
		c-12.9,16.3-20.2,34.7-20.2,54.2c0,0.9,0,1.7,0,2.6v0C63.7,307,60.2,294.4,67.3,280.2z M68.8,318.7
		C68.8,318.7,68.8,318.8,68.8,318.7C68.8,318.8,68.8,318.7,68.8,318.7z M256.4,430.7c-101.6,0-184-52.7-184-117.6
		c0-47.3,43.7-88.1,106.7-106.7c-20.4,8.3-37.6,19.7-50.2,33.3c22.2-21.8,56.8-37.5,97.1-42.9c-2.2,3.1-3.4,6.6-3.4,10.4
		c0,8.3,6.2,15.6,15.5,19.8c-6.9-4-11.3-10.3-11.3-17.3c0-12.2,13.4-22.1,29.9-22.1c16.5,0,29.9,9.9,29.9,22.1
		c0,7-4.4,13.3-11.3,17.3c9.3-4.2,15.5-11.5,15.5-19.8c0-3.7-1.2-7.2-3.4-10.3c40.2,5.4,74.7,21.1,96.8,42.8
		c-12.4-13.5-29.4-24.8-49.5-33.1c62.5,18.8,105.8,59.4,105.8,106.5C440.5,378.1,358.1,430.7,256.4,430.7z M447.3,244.5
		c17.7,26.5,16,50.6,16,50.6c-5.1-14.3-17.7-14.9-17.7-14.9c7.1,14.2,3.6,26.8-1.3,35.5v0c0-0.8,0.1-1.7,0.1-2.6
		c0-19.6-7.3-38.1-20.4-54.4c0.1,0.2,0.3,0.4,0.4,0.5c4.8-19.8-4.8-30-4.8-30c7,4.2,11.7,11.3,11.7,11.3
		c-1.5-15.8-10.1-27.6-10.1-27.6c36,13.1,49.6,43.9,49.6,43.9C461.4,246,447.3,244.5,447.3,244.5z M506,167.8
		c-7.5,32.8-27.5,57.7-49.3,64.4c-4-3.9-8.3-7.2-12.6-10.1c1.6,0.8,3.2,1.4,4.9,1.8c8.7,2,18-2,26.5-10.4c-7.7,6.8-16.2,10-24.1,8.2
		c-9.2-2.1-16-10.5-19.9-22.5c0.1-0.4,0.3-0.7,0.4-1.1c2.1,1.7,4.5,3.1,7.1,3.9c15.5,4.8,34-10.3,41.2-33.7
		c7.2-23.4,0.4-46.2-15.1-51c-8.3-2.6-17.5,0.6-25.3,7.7c10.6-21.6,26.6-34.8,41-31.5c7.9,1.8,14.1,8.3,18.1,17.8
		c-4-11.1-10.6-18.8-19.3-20.8c-17.7-4-37.9,16.7-47.9,47.7c-2.2-6.4-5.1-12.4-8.5-17.9l0,0c-1.4-4-3-8-4.6-11.9
		C432.6,86.9,453,74.6,472.3,79C500.6,85.5,515.7,125.3,506,167.8z"/>
	<path class="st0" d="M245,245.2c0-4.8,1.6-9.2,4.1-12.4c-4,3.2-6.7,8.7-6.7,15c0,9.8,6.4,17.8,14.4,17.8c4,0,7.7-2,10.3-5.4
		c-2.2,1.8-4.9,2.8-7.7,2.8C251.5,263,245,255,245,245.2z"/>
	<path class="st0" d="M248.3,208.4c1.9,2,3,4.5,3.2,6.9c0.4-3-0.7-6.4-3.2-9c-3.9-4.2-9.9-4.9-13.2-1.8c-1.7,1.6-2.4,3.9-2.2,6.4
		c0.2-1.6,0.9-3.1,2.1-4.3C238.4,203.4,244.4,204.2,248.3,208.4z"/>
	<path class="st0" d="M266,208.4c3.9-4.2,9.9-4.9,13.2-1.8c1.2,1.1,1.9,2.6,2.1,4.3c0.2-2.4-0.5-4.8-2.2-6.4
		c-3.4-3.2-9.3-2.4-13.2,1.8c-2.5,2.7-3.6,6.1-3.2,9C263,212.9,264.1,210.4,266,208.4z"/>
	<path class="st0" d="M169.1,406.9c20.5,9.4,51.9,15.4,87.1,15.4c35.2,0,66.6-6,87.1-15.4c-24.2,6.1-54.4,9.6-87.1,9.6
		C223.5,416.5,193.4,412.9,169.1,406.9z"/>
	<path class="st0" d="M403.4,258.4l0.1,0.2c-13.9,9.3-34.1,17.2-58.3,22.9l0,0c0,0,0,0-0.1,0c-4,0.9-8.1,1.8-12.3,2.6h0h0
		c-23.1,4.4-49.4,6.9-77.2,6.9c-63.2,0-118.2-12.9-147.2-32l0.1-0.1c-1.6-1.5-3.2-2.3-4.9-2.3c-8.5,0-15.4,19.4-15.4,43.3
		c0,10.3,1.3,19.7,3.4,27.2v0h0c1.9,6.8,4.6,11.9,7.6,14.4l-0.2,0.3c28.1,22.2,87.6,37.6,156.5,37.6c69,0,128.6-15.4,156.6-37.6
		l-0.1-0.3c2.8-2.4,5.3-7,7.2-13.2h0c0,0,0-0.1,0-0.1c2.3-7.6,3.7-17.4,3.7-28.2c0-23.9-6.9-43.3-15.3-43.3
		C406.2,256.6,404.7,257.2,403.4,258.4z M390.1,269.3c-1.2,1.9-2.3,4.4-2.9,7.3c-1.5-1.2-4.1-2.3-8.5-2.5
		C382.7,272.6,386.5,270.9,390.1,269.3z M338.2,285.7c-0.7,0.7-1.3,1.4-1.9,2.3c-0.3-0.6-0.6-1.2-1-1.7
		C336.2,286.1,337.2,285.9,338.2,285.7z M255.6,293.6c2.6,0,5.3,0,7.9-0.1c-2.9,1.4-5.5,3.3-7.6,5.7c-2.1-2.4-4.7-4.3-7.6-5.7
		C250.7,293.6,253.2,293.6,255.6,293.6z M176,286.2c-0.4,0.5-0.7,1.1-1,1.7c-0.6-0.9-1.3-1.6-1.9-2.3C174,285.9,175,286,176,286.2z
		 M132.5,274.1c-4.4,0.3-7,1.3-8.5,2.5c-0.6-3-1.7-5.4-2.9-7.3C124.8,270.9,128.6,272.6,132.5,274.1z M90.2,299.9
		c0-18.8,4.3-34.5,10.2-38.8c-3.1,5.1-5,11.6-5,18.9c0,9.1,3,17.3,7.7,22.6c-7.6,1.6-10.1,11.1-11,17.8
		C90.9,314.4,90.2,307.4,90.2,299.9z M409,339.7l0.3,0.5c-26.7,21.7-85.4,36.7-153.6,36.7c-68.4,0-127.3-15.1-153.9-36.9l0.1-0.5
		c-3.2-1.2-6-5.7-8.1-12.3c0.5-16.6,6.6-22.2,9.9-24c2.7,2.8,5.8,4.7,9.3,5.4c-8-3.9-13.8-14.6-13.8-27.2c0-8.2,2.5-15.6,6.4-20.8
		c0,0,0,0,0.1,0l-0.1,0.2c2.1,1.4,4.4,2.7,6.8,4l0,0c0,0,0.1,0,0.1,0c1.1,0.6,2.3,1.2,3.4,1.8c4.3,3,6.8,7.8,7.9,10.3
		c-2.5,2.4-1.4,5.4-1.4,5.4c0.2-1.7,1-2.9,2-3.8c4.8-4,15.9-1.7,15.9-1.7l0,0c7.7,2.6,16,5,24.9,7v0c0,0,0.1,0,0.1,0
		c1.6,0.4,3.2,0.7,4.9,1.1c2.6,1,4.1,2.3,4.8,3c-2.5,5.1-3.5,13.1-3.5,13.1c2.3-13.4,9.8-13.9,9.8-13.9l0,0
		c18,3.3,37.7,5.4,58.6,6.1c0.2,0,0.5,0,0.7,0.1c0.1,0,0.2,0,0.2,0c0.7,0.1,1.4,0.2,2.1,0.3c0.1,0,0.2,0.1,0.3,0.1
		c0.7,0.2,1.3,0.4,2,0.6c0.1,0,0.2,0.1,0.2,0.1c0.7,0.2,1.3,0.5,2,0.8c0,0,0.1,0,0.1,0.1c1.4,0.7,2.7,1.4,3.9,2.3c0,0,0,0,0,0
		c0.6,0.4,1.2,0.9,1.7,1.4c0,0,0.1,0.1,0.1,0.1c0.5,0.5,1.1,1,1.5,1.5c0,0,0,0,0.1,0.1l0,0c0.5,0.5,0.9,1,1.3,1.6
		c0.4-0.6,0.8-1.1,1.3-1.6h0c0,0,0.1,0,0.1-0.1c0.5-0.5,1-1.1,1.5-1.5c0,0,0.1-0.1,0.1-0.1c0.5-0.5,1.1-1,1.7-1.4c0,0,0,0,0,0
		c1.2-0.9,2.5-1.7,3.9-2.3c0,0,0.1,0,0.1-0.1c0.6-0.3,1.3-0.6,2-0.8c0.1,0,0.2-0.1,0.2-0.1c0.7-0.2,1.3-0.4,2-0.6
		c0.1,0,0.2,0,0.3-0.1c0.7-0.1,1.4-0.3,2.1-0.3c0.1,0,0.2,0,0.2,0c0.2,0,0.5,0,0.7-0.1v0c20.6-0.7,40.1-2.9,58-6.1
		c0.2,0,7.4,0.6,9.7,13.9c0,0-1-8-3.5-13.1c0.7-0.8,2.2-2,4.7-3c10.8-2.3,20.8-5.1,30-8.2c0.3,0,11.2-2.3,15.9,1.7
		c1.1,0.9,1.8,2.1,2,3.8c0,0,1.1-3-1.4-5.4c1.1-2.5,3.5-7.2,7.9-10.2c1.2-0.6,2.4-1.2,3.5-1.9c0,0,0,0,0,0h0
		c2.1-1.2,4.2-2.4,6.1-3.7c4.1,5.3,6.7,12.9,6.7,21.3c0,12.6-5.8,23.3-13.7,27.2c3.5-0.7,6.6-2.6,9.3-5.4c3.2,1.8,9.2,7.4,9.8,23.8
		C415,334.5,412.2,338.8,409,339.7z M421.1,299.9c0,8-0.8,15.5-2.2,21.7c-0.8-6.7-3.4-16.3-11-18c4.7-5.3,7.7-13.4,7.7-22.6
		c0-8.2-2.5-15.6-6.4-20.8C415.9,262.6,421.1,279.4,421.1,299.9z"/>
	<path class="st0" d="M120.2,301.1c0,0-9.2,13.4,14.5,21.7C134.7,322.8,119.6,314.6,120.2,301.1z"/>
	<path class="st0" d="M375.2,322.8c23.6-8.3,14.4-21.7,14.4-21.7C390.3,314.6,375.2,322.8,375.2,322.8z"/>
	<path class="st0" d="M171,318c-2.2,6.8-1.5,11.9,0.7,15.8c-1.9,0.6-6.3,0.8-16.5-1.9c0,0,9.8,5.4,18.4,4.6
		c6.7,7.7,19.3,9.3,19.3,9.3C168.4,338.1,171,318,171,318z"/>
	<path class="st0" d="M340.4,333.8c2.2-3.9,3-9.1,0.8-15.8c0,0,2.6,20.1-22,27.8c0,0,12.6-1.6,19.3-9.3c8.6,0.8,18.4-4.6,18.4-4.6
		C346.8,334.6,342.3,334.4,340.4,333.8z"/>
	<path class="st0" d="M258.3,342.3c-1.8-1-2.6-8.2-3-13.8c-0.2-3.5-0.3-6.5-0.3-6.5h-0.1c0,0-0.4,18.8-3.3,20.4
		c-2.9,1.6-2.8,4.8-24.9,4.2c0,0,21,3.3,26.6-3.3c0,0,1.7-1.3,1.7-2.6c0,0,0,0.9,1.7,2.6c5.5,6.6,26.6,3.3,26.6,3.3
		C261.1,347.1,261.2,343.9,258.3,342.3z"/>
</g>
</svg>
