<?xml version="1.0" encoding="utf-8"?>
<!-- Generator: Adobe Illustrator 25.0.1, SVG Export Plug-In . SVG Version: 6.00 Build 0)  -->
<svg version="1.1" id="Capa_1" xmlns="http://www.w3.org/2000/svg" xmlns:xlink="http://www.w3.org/1999/xlink" x="0px" y="0px"
	 viewBox="0 0 512 512" style="enable-background:new 0 0 512 512;" xml:space="preserve">
<style type="text/css">
	.st0{fill:#29AAE1;}
</style>
<g>
	<path class="st0" d="M223.1,305.7L223.1,305.7c-60.7-28.4-99.7,10.9-99.8,11l-9.7-4.1c2.2-123.5,30.6-152.4,36-156.7
		c16.6-19.9,39.4-33.9,65.4-42.9c28.8-10,61.8-13.7,94.7-12.4l3.2,10.2c-0.8,0.6-1.3,1.2-1.7,1.7l0,0c-0.2,0.3-0.3,0.6-0.3,0.9
		c0,1.1,1.2,2.3,3.2,3.4h0c2.9,1.7,7.1,2.7,11.8,2.7c4.7,0,8.9-1,11.8-2.7h0c1.9-1.1,3.2-2.3,3.2-3.4l0-0.4
		c-0.1-0.2-0.1-0.4-0.2-0.5l-6.1-10.3l11.8,1.8c34.7,5.3,67.8,15.9,94.1,30.6c25.2,14,44.3,31.8,52.8,52.2
		c30,71.9,17.6,118.5,8.1,154.3c-1.6,6-3.1,11.8-4.3,16.8c-6,26.9-41.2,28.5-85.1,18.7c-70.6-15.7-165.7-60.2-188.6-70.9
		L223.1,305.7z M125.2,300.7c16.8-11.3,53.7-28.3,102.7-5.3l0.1,0.1l0.1,0c22.9,10.7,116.8,54.6,186.1,70
		c37.7,8.4,67.4,8.5,71.6-10.1c1.3-5.8,2.8-11.4,4.4-17.3c9.1-34.2,20.9-78.7-7.6-147c-7.4-17.8-24.7-33.8-47.8-46.6
		c-23.2-12.9-52.2-22.6-83-28c-1,4.1-4.1,7.7-8.6,10.2l0,0c-4.5,2.6-10.7,4.2-17.4,4.2c-6.7,0-12.9-1.6-17.4-4.2l0,0
		c-5.5-3.1-8.9-7.8-8.9-13.3c0-0.6,0-1.2,0.1-1.7c-28.3-0.2-56.2,3.5-80.9,12.1c-24.4,8.4-45.6,21.5-60.7,39.9l-1.3,1.2
		C156.5,164.8,129.1,181.5,125.2,300.7z"/>
	<path class="st0" d="M419.3,394.3c6.3-4.4,12.3-9,17.3-13.3c-71.3-8.8-187.7-63.2-213.3-75.3l-0.1,0c-60.7-28.4-99.8,10.9-99.9,11
		l-2,1.3c-71,26.4-97,48.3-106,62.7c43.5-52,99.3-28.3,174.7,3.7c15.1,6.4,30.9,13.1,47.7,19.6c92.8,36.1,124.6,20.7,142,12.3
		c2.2-1,4.1-2,6.2-2.8v0C394.5,409.9,407.4,402.5,419.3,394.3 M453.6,380c-5.9,7.1-16.5,15.8-27.9,23.6
		c-12.6,8.7-26.3,16.5-35.6,20.3l0,0c-1.5,0.6-3.4,1.5-5.6,2.6c-18.9,9.1-53.7,25.9-151-12c-16.8-6.5-32.8-13.3-48-19.8
		c-77.9-33-133.4-56.6-173.6,10.3l-5.1,8.4l-4.8-8.6c-0.1-0.1-26.8-44.5,114.1-97.1c6.6-6.1,49.4-41.6,111.9-12.4l0.1,0
		c26.8,12.6,154.3,72.2,221.4,75.3l11.4,0.5L453.6,380z"/>
	<path class="st0" d="M38.1,408.9c34.5-4.7,74.7-25.4,93.2-35.9c-23.6-8.2-44.6-12.9-63.2-10.4c-20.4,2.7-38.3,14.2-54.3,39.4
		c3.8,11.5,23.7,7.1,23.7,7L38.1,408.9z M148.6,375.9L148.6,375.9l-1,0.8c-0.8,0.5-59.1,36.8-107.8,43.5
		c-4.2,0.8-33.9,5.5-37.7-18.3l0.8-3.8c18.3-29.9,39.4-43.5,63.7-46.7c23.8-3.1,50.2,3.9,80,15.2l8.2,3.1L148.6,375.9z"/>
	<path class="st0" d="M343.2,126.7L343.2,126.7c-4.5,2.6-10.7,4.2-17.4,4.2c-6.7,0-12.9-1.6-17.4-4.2l0,0c-5.5-3.1-8.9-7.8-8.9-13.3
		c0-5.5,3.4-10.2,8.9-13.3h0c4.5-2.6,10.7-4.2,17.4-4.2c6.7,0,12.9,1.6,17.4,4.2c5.5,3.1,8.9,7.8,8.9,13.3
		C352.2,118.8,348.8,123.5,343.2,126.7 M325.8,119.5c4.7,0,8.9-1,11.8-2.7h0c1.9-1.1,3.2-2.3,3.2-3.4c0-1.1-1.2-2.3-3.2-3.4
		c-2.9-1.7-7.1-2.7-11.8-2.7c-4.7,0-8.9,1-11.8,2.7l0,0c-2,1.1-3.2,2.4-3.2,3.4c0,1.1,1.2,2.3,3.2,3.4h0
		C317,118.5,321.1,119.5,325.8,119.5z"/>
	<path class="st0" d="M395.6,356.4c-0.6-3-1.4-7.5,1.4-83.1c1.5-41-33.9-75.2-79.3-95.6c-20-9-41.9-15.4-63.5-18.4
		c-21.4-3-42.5-2.8-60.9,1.2c-30.2,6.6-53.2,23.6-58.4,53.6c-0.5,3-1.2,6.6-1.9,10.3c-3.3,17.6-6.7,36.1-7.9,76.5
		c16.8-11.3,53.7-28.3,102.8-5.3l0.2,0.1c20.9,9.8,101,47.3,167.7,65.4C395.9,357.7,395.8,357.1,395.6,356.4L395.6,356.4z
		 M408.4,273.6c-2.7,74.1-2,78.1-1.5,80.6c0.3,1.8,0.6,3.2,0.2,14.2l-0.3,7.1l-6.8-1.7c-68.8-17.6-154.7-57.8-176.6-68l-0.2-0.1
		c-60.7-28.4-99.8,10.9-99.9,11l-9.7-4.1c0.9-49.9,4.7-70.7,8.4-90.3c0.6-3.1,1.2-6.2,1.8-10.2c6.1-35.4,32.5-55.3,67.2-62.8
		c19.7-4.3,42.1-4.5,64.9-1.3c22.6,3.2,45.6,9.8,66.6,19.3C371.6,189.4,410.1,227.3,408.4,273.6z"/>
</g>
</svg>
