<?xml version="1.0" encoding="utf-8"?>
<!-- Generator: Adobe Illustrator 25.0.1, SVG Export Plug-In . SVG Version: 6.00 Build 0)  -->
<svg version="1.1" id="Capa_1" xmlns="http://www.w3.org/2000/svg" xmlns:xlink="http://www.w3.org/1999/xlink" x="0px" y="0px"
	 viewBox="0 0 512 512" style="enable-background:new 0 0 512 512;" xml:space="preserve">
<style type="text/css">
	.st0{fill:#29AAE1;}
</style>
<g>
	<path class="st0" d="M448.6,53.5L459,63.9l0,0c12,12,18,27.8,18,43.6c0,15.8-6,31.6-18,43.6l0,0L178.5,431.6h0
		c-0.9,0.9-2,1.5-3.1,1.8L45.2,476.2l0,0c-3.6,1.2-7.5-0.8-8.7-4.4c-0.5-1.6-0.4-3.2,0.1-4.7l42.7-130.3l6.5,2.1l-6.5-2.1
		c0.4-1.1,1-2.1,1.8-2.8L361.5,53.5c12-12,27.8-18,43.6-18C420.8,35.6,436.6,41.6,448.6,53.5L448.6,53.5z M449.3,73.7l-10.4-10.4
		c-9.3-9.3-21.6-13.9-33.8-13.9c-12.3,0-24.5,4.6-33.8,13.9L91.9,342.6L53.8,458.8l116.1-38.1l279.4-279.4v0
		c9.3-9.3,13.9-21.6,13.9-33.8C463.2,95.2,458.6,83,449.3,73.7L449.3,73.7z"/>
	<path class="st0" d="M94.9,329.9c-2.7-2.7-7.1-2.7-9.7,0c-2.7,2.7-2.7,7.1,0,9.7l87.8,87.8c2.7,2.7,7.1,2.7,9.7,0
		c2.7-2.7,2.7-7.1,0-9.7L94.9,329.9z"/>
	<path class="st0" d="M349.7,75.1c-2.7-2.7-7.1-2.7-9.7,0c-2.7,2.7-2.7,7.1,0,9.7l87.8,87.8c2.7,2.7,7.1,2.7,9.7,0
		c2.7-2.7,2.7-7.1,0-9.7L349.7,75.1z"/>
	<path class="st0" d="M340.1,151.1c2.7-2.7,2.7-7.1,0-9.7c-2.7-2.7-7.1-2.7-9.7,0l-179,179c-2.7,2.7-2.7,7.1,0,9.7
		c2.7,2.7,7.1,2.7,9.7,0L340.1,151.1z"/>
	<path class="st0" d="M371.2,182.2c2.7-2.7,2.7-7.1,0-9.7c-2.7-2.7-7.1-2.7-9.7,0l-179,179c-2.7,2.7-2.7,7.1,0,9.7
		c2.7,2.7,7.1,2.7,9.7,0L371.2,182.2z"/>
	<path class="st0" d="M99.5,458.3l-54.3,17.8l0,0c-3.6,1.2-7.5-0.8-8.7-4.4c-0.5-1.6-0.4-3.2,0.1-4.7l17.8-54.3l6.5,2.1l-6.5-2.1
		c1.2-3.6,5.1-5.6,8.7-4.4c1.1,0.4,2.1,1,2.8,1.8l36.7,36.7l0,0c2.7,2.7,2.7,7.1,0,9.7C101.7,457.4,100.6,458,99.5,458.3L99.5,458.3
		z M53.8,458.8l31.1-10.2L64,427.7L53.8,458.8z"/>
</g>
</svg>
