<?xml version="1.0" encoding="utf-8"?>
<!-- Generator: Adobe Illustrator 25.0.1, SVG Export Plug-In . SVG Version: 6.00 Build 0)  -->
<svg version="1.1" id="Capa_1" xmlns="http://www.w3.org/2000/svg" xmlns:xlink="http://www.w3.org/1999/xlink" x="0px" y="0px"
	 viewBox="0 0 512 512" style="enable-background:new 0 0 512 512;" xml:space="preserve">
<style type="text/css">
	.st0{fill:#29AAE1;}
</style>
<g>
	<path class="st0" d="M267,216.5v-5.1c17.9-4,34.9-13,48.8-26.9c39.7-39.7,39.7-104.1,0-143.8C276.1,1.3,212,1.3,172.3,40.7
		c-39.7,39.7-39.7,104.1,0,143.8c13.9,13.9,30.9,23,48.8,26.9v6.8c-65,12.5-114.3,70.1-114.3,139c0,78,63.5,141.5,141.8,141.5
		c78,0,141.5-63.5,141.5-141.5C390.1,285.2,336.5,225.6,267,216.5z M294.6,62.2c27.8,27.8,27.8,72.9,0,100.7
		c-8.5,8.5-18.2,14.2-28.9,17.6c-3.7-6-15.3-6.5-21.6-6.5c-6,0-17.9,0.6-21.6,6.5c-10.5-3.4-20.4-9.1-28.9-17.6
		c-27.8-27.8-27.8-72.9,0-100.7C221.7,34.4,266.8,34.4,294.6,62.2z M234.5,188c4.6-1.1,14.6-1.1,19.2,0v21.5
		c-1.7-0.1-3.4-0.1-5.1-0.1c-4.6,0-9.2,0.2-14.1,0.7V188z M273,192c11.6-4.1,22.3-10.8,30.9-19.7c16-15.9,24.7-37.1,24.7-59.7
		c0-22.5-8.8-43.7-24.7-59.7c-15.5-15.5-36.1-24.3-58-24.7c-19.9-0.4-39,6-54.4,18.3l-2.8-2.7c34.9-28.2,85.4-26,117.7,6.3
		c34.5,34.5,34.5,90.6,0,125.1c-9.4,9.4-20.9,16.5-33.4,20.9V192z M178,60.1c-26.7,33.4-24.4,81.6,6.2,112.2
		c9.1,9.1,19.5,15.7,30.9,19.7v4c-12.6-4.3-24-11.5-33.4-20.9c-32.3-32.3-34.7-82.9-6.4-117.8L178,60.1z M248.6,228.8
		c70.7,0,128.2,57.6,128.2,128.4c0,70.8-57.5,128.4-128.2,128.4c-70.8,0-128.4-57.6-128.4-128.4
		C120.2,286.4,177.8,228.8,248.6,228.8z"/>
	<path class="st0" d="M248.6,453.7c53.3,0,96.4-43.1,96.4-96.4c0-53.6-43.1-96.7-96.4-96.7c-53.6,0-96.7,43.1-96.7,96.7
		C151.9,410.6,195,453.7,248.6,453.7z M165,357.2c0-46.1,37.5-83.6,83.6-83.6c46,0,83.3,37.5,83.3,83.6c0,46-37.4,83.3-83.3,83.3
		C202.5,440.6,165,403.2,165,357.2z"/>
	<path class="st0" d="M183.2,379.9c1.7-0.3,3-1.2,3.9-2.5c0.8-1.3,1.1-2.8,0.8-4.4l0-0.1c-0.4-2.1-0.7-3.9-0.9-5.5l-0.1-0.9
		c-0.2-1.9-0.2-3.1-0.2-3.8c0-0.5,0-1-0.1-1.6c0-0.7-0.1-1.6,0-2l0.1-0.3l0-0.3c0.2-17.5,6.4-33.6,17.4-45.3
		c10.8-11.4,25-17.9,40-18.4l3-0.2c1.4,0.1,2.7-0.3,3.8-1.2c1.4-1.1,2.2-2.8,2.2-4.4c0-3.4-2.6-5.9-5.9-5.9l-3.3,0
		c-18.2,0.5-35.4,8.4-48.5,22c-13,13.8-20.3,32.8-20.5,53.5v4.5c0,0.8,0,2.6,0.3,5c0.1,0.5,0.1,1.1,0.2,1.7c0.2,1.6,0.5,3.7,0.9,5.7
		l0.1,0.4c0.9,2.7,3.2,4.4,5.8,4.4C182.5,380,182.8,380,183.2,379.9z"/>
	<path class="st0" d="M194.4,402l0.4-0.3c2.5-1.9,3.4-5.2,2-7.9l-0.1-0.2c-0.3-0.5-0.6-1-0.9-1.5c-0.3-0.6-0.6-1.1-0.9-1.7
		c-0.6-1.1-1.1-2.2-1.4-3.2l-0.1-0.3l-0.1-0.3c-1.5-2.9-4.8-4.1-7.8-2.8l-0.2,0.1c-2.9,1.5-4.1,4.8-2.8,7.8l0.1,0.2
		c0.3,0.5,0.5,1.1,0.7,1.7c0.3,0.7,0.6,1.4,1,2.2c0.4,0.8,0.8,1.5,1.2,2.1c0.4,0.6,0.7,1.1,1,1.7c1,2,3.1,3.1,5.2,3.1
		C192.5,402.7,193.5,402.5,194.4,402z"/>
</g>
</svg>
