<?xml version="1.0" encoding="utf-8"?>
<!-- Generator: Adobe Illustrator 25.0.1, SVG Export Plug-In . SVG Version: 6.00 Build 0)  -->
<svg version="1.1" id="Capa_1" xmlns="http://www.w3.org/2000/svg" xmlns:xlink="http://www.w3.org/1999/xlink" x="0px" y="0px"
	 viewBox="0 0 512 512" style="enable-background:new 0 0 512 512;" xml:space="preserve">
<style type="text/css">
	.st0{fill:#29AAE1;}
</style>
<g>
	<rect x="4.9" y="166.5" class="st0" width="171" height="16.1"/>
	<rect x="335.4" y="166.5" class="st0" width="171" height="16.1"/>
	<rect x="5.8" y="442.6" class="st0" width="500.6" height="16.1"/>
	<g>
		<path class="st0" d="M69.2,251.5V324h-14v-36.4l-14.9,34.3h-4.3l-15-34.3V324h-14v-72.4h13.6L38,291.7l17.5-40.1H69.2z"/>
		<path class="st0" d="M109.5,251.5l18.7,72.4h-14.4l-2.8-11H91.4l-2.8,11H74.1l18.7-72.4H109.5z M95.1,298.9h12.2l-6.1-23.6
			L95.1,298.9z"/>
		<path class="st0" d="M181.6,251.5V324h-13.6l-20.2-40.3V324h-14v-72.4h13.6l20.2,40.3v-40.3H181.6z"/>
		<path class="st0" d="M251.3,257.4c4.9,4.9,7.3,10.8,7.3,17.6v2.5c0,6.9-2.4,12.8-7.3,17.7c-4.9,4.9-10.7,7.3-17.6,7.3
			c-6.9,0-12.7-2.4-17.6-7.3c-4.9-4.9-7.3-10.8-7.3-17.7V275c0-6.9,2.4-12.7,7.3-17.6c4.9-4.9,10.8-7.3,17.6-7.3
			C240.5,250.1,246.4,252.5,251.3,257.4z M225.9,267.3c-2.2,2.2-3.2,4.7-3.2,7.7v2.5c0,3,1.1,5.6,3.2,7.8c2.1,2.1,4.7,3.2,7.7,3.2
			c3,0,5.6-1.1,7.7-3.2c2.2-2.2,3.2-4.7,3.2-7.8V275c0-3-1.1-5.6-3.2-7.7c-2.1-2.1-4.7-3.2-7.7-3.2
			C230.6,264.1,228,265.2,225.9,267.3z"/>
		<path class="st0" d="M314.4,251.5V324h-13.6l-20.2-40.3V324h-14v-72.4h13.6l20.2,40.3v-40.3H314.4z"/>
		<path class="st0" d="M381.8,251.5v14h-23.2v15.2h17.8v14h-17.8V324h-14v-72.4H381.8z"/>
		<path class="st0" d="M387.3,251.5h14V324h-14V251.5z"/>
		<path class="st0" d="M426.8,294.8V324h-14v-72.4h26.7c5.9,0,11,2.1,15.3,6.4c4.2,4.2,6.3,9.3,6.3,15.3c0,4.5-1.3,8.7-4,12.4
			c-2.6,3.7-6.1,6.3-10.3,7.9l12.6,30.5h-15.2l-12-29.2H426.8z M426.8,265.5v15.2h12.7c2.1,0,3.8-0.7,5.3-2.2
			c1.5-1.5,2.3-3.3,2.3-5.4c0-2.1-0.8-3.9-2.3-5.4c-1.5-1.5-3.3-2.3-5.3-2.3H426.8z"/>
		<path class="st0" d="M506.3,251.5v14h-23.2v15.2h17.8v14h-17.8V310h23.2v14h-37.2v-72.4H506.3z"/>
	</g>
	<rect x="210.9" y="310" class="st0" width="45.6" height="14"/>
	<g>
		<path class="st0" d="M21,350.9v5.7h-9.5v6.2h7.3v5.7h-7.3v12H5.8v-29.6H21z"/>
		<path class="st0" d="M31.3,350.9h5.8v29.6h-5.8V350.9z"/>
		<path class="st0" d="M55.6,368.6v12h-5.7v-29.6h10.9c2.4,0,4.5,0.9,6.2,2.6c1.7,1.7,2.6,3.8,2.6,6.2c0,1.9-0.5,3.6-1.6,5.1
			c-1.1,1.5-2.5,2.6-4.2,3.2l5.1,12.5h-6.2l-4.9-12H55.6z M55.6,356.7v6.2h5.2c0.8,0,1.6-0.3,2.2-0.9c0.6-0.6,0.9-1.4,0.9-2.2
			c0-0.9-0.3-1.6-0.9-2.2c-0.6-0.6-1.3-0.9-2.2-0.9H55.6z"/>
		<path class="st0" d="M96.3,350.9v5.7h-9.5v6.2H94v5.7h-7.3v6.2h9.5v5.7H81v-29.6H96.3z"/>
		<path class="st0" d="M135.2,350.9l-7.7,29.6h-4.2l-3.2-12.3l-3.2,12.3h-4.2l-7.7-29.6h5.9l3.9,14.9l3.9-14.9h2.8l3.9,14.9
			l3.9-14.9H135.2z"/>
		<path class="st0" d="M162.2,353.3c2,2,3,4.4,3,7.2V371c0,2.8-1,5.2-3,7.2c-2,2-4.4,3-7.2,3c-2.8,0-5.2-1-7.2-3c-2-2-3-4.4-3-7.2
			v-10.4c0-2.8,1-5.2,3-7.2c2-2,4.4-3,7.2-3C157.8,350.3,160.2,351.3,162.2,353.3z M151.8,357.4c-0.9,0.9-1.3,1.9-1.3,3.2V371
			c0,1.2,0.4,2.3,1.3,3.2c0.9,0.9,1.9,1.3,3.2,1.3c1.2,0,2.3-0.4,3.2-1.3c0.9-0.9,1.3-1.9,1.3-3.2v-10.4c0-1.2-0.4-2.3-1.3-3.2
			c-0.9-0.9-1.9-1.3-3.2-1.3C153.7,356.1,152.7,356.5,151.8,357.4z"/>
		<path class="st0" d="M193.5,353.3c2,2,3,4.4,3,7.2V371c0,2.8-1,5.2-3,7.2c-2,2-4.4,3-7.2,3c-2.8,0-5.2-1-7.2-3s-3-4.4-3-7.2v-10.4
			c0-2.8,1-5.2,3-7.2c2-2,4.4-3,7.2-3C189.1,350.3,191.5,351.3,193.5,353.3z M183.1,357.4c-0.9,0.9-1.3,1.9-1.3,3.2V371
			c0,1.2,0.4,2.3,1.3,3.2c0.9,0.9,1.9,1.3,3.2,1.3c1.2,0,2.3-0.4,3.2-1.3c0.9-0.9,1.3-1.9,1.3-3.2v-10.4c0-1.2-0.4-2.3-1.3-3.2
			c-0.9-0.9-1.9-1.3-3.2-1.3C185.1,356.1,184,356.5,183.1,357.4z"/>
		<path class="st0" d="M218.4,350.9c2.7,0,5.1,1,7,2.9c1.9,1.9,2.9,4.3,2.9,7V371c0,2.6-0.9,4.9-2.8,6.8c-1.9,1.9-4.1,2.8-6.8,2.8
			h-10.3v-29.6H218.4z M214.2,356.7v18.2h4.5c1.1,0,2-0.4,2.7-1.1c0.8-0.8,1.1-1.7,1.1-2.7v-10.1c0-1.2-0.4-2.1-1.2-3
			c-0.8-0.8-1.8-1.2-3-1.2H214.2z"/>
		<path class="st0" d="M260.7,362.2c0.7,0.5,1.7,0.7,2.9,0.7c2.8,0,5.1,0.8,7,2.4c2,1.7,3,3.9,3,6.6c0,2.6-1,4.8-3,6.7
			c-2,1.8-4.3,2.7-6.9,2.7c-3.9,0-7-1.8-9.1-5.5l2.5-1.4l2.5-1.4c1,1.8,2.4,2.7,4.1,2.7c1.1,0,2-0.3,2.8-1c0.9-0.7,1.3-1.6,1.3-2.6
			c0-1.1-0.4-2-1.3-2.5c-0.7-0.5-1.7-0.7-2.9-0.7c-2.8,0-5.1-0.8-7-2.4c-2-1.7-3-3.9-3-6.6c0-2.6,1-4.8,3-6.7c2-1.8,4.3-2.7,6.9-2.7
			c3.9,0,7,1.8,9.1,5.5l-5,2.9c-1-1.8-2.4-2.6-4.1-2.6c-1.1,0-2,0.3-2.8,1c-0.9,0.7-1.4,1.6-1.4,2.6
			C259.4,360.8,259.9,361.6,260.7,362.2z"/>
		<path class="st0" d="M290.1,368.6v12h-5.7v-29.6h10.9c2.4,0,4.5,0.9,6.2,2.6c1.7,1.7,2.6,3.8,2.6,6.3c0,2.4-0.9,4.5-2.6,6.2
			c-1.7,1.7-3.8,2.6-6.2,2.6H290.1z M290.1,356.7v6.2h5.2c0.8,0,1.6-0.3,2.2-0.9c0.6-0.6,0.9-1.3,0.9-2.2c0-0.9-0.3-1.6-0.9-2.2
			c-0.6-0.6-1.4-0.9-2.2-0.9H290.1z"/>
		<path class="st0" d="M330.4,350.9v5.7h-9.5v6.2h7.3v5.7h-7.3v6.2h9.5v5.7h-15.2v-29.6H330.4z"/>
		<path class="st0" d="M346.9,357.4c-0.9,0.9-1.3,1.9-1.3,3.2V371c0,1.2,0.4,2.3,1.3,3.2c0.9,0.9,1.9,1.3,3.2,1.3
			c1.7,0,3.1-0.9,4.1-2.7l5,2.9c-2.1,3.7-5.2,5.5-9.1,5.5c-2.8,0-5.2-1-7.2-3c-2-2-3-4.4-3-7.2v-10.4c0-2.8,1-5.2,3-7.2
			c2-2,4.4-3,7.2-3c3.9,0,7,1.8,9.1,5.5l-5,2.9c-1-1.8-2.4-2.6-4.1-2.6C348.8,356.1,347.8,356.5,346.9,357.4z"/>
		<path class="st0" d="M369.7,350.9h5.7v29.6h-5.7V350.9z"/>
		<path class="st0" d="M400,350.9l7.7,29.6h-5.9l-1.2-4.5h-8l-1.2,4.5h-5.9l7.7-29.6H400z M394.1,370.3h5l-2.5-9.7L394.1,370.3z"/>
		<path class="st0" d="M423.8,350.9v23.9h9.5v5.7h-15.2v-29.6H423.8z"/>
		<path class="st0" d="M443.2,350.9h5.8v29.6h-5.8V350.9z"/>
		<path class="st0" d="M467.2,362.2c0.7,0.5,1.7,0.7,2.9,0.7c2.8,0,5.1,0.8,7,2.4c2,1.7,3,3.9,3,6.6c0,2.6-1,4.8-3,6.7
			c-2,1.8-4.3,2.7-6.9,2.7c-3.9,0-7-1.8-9.1-5.5l2.5-1.4l2.5-1.4c1,1.8,2.4,2.7,4.1,2.7c1.1,0,2-0.3,2.8-1c0.9-0.7,1.3-1.6,1.3-2.6
			c0-1.1-0.4-2-1.3-2.5c-0.7-0.5-1.7-0.7-2.9-0.7c-2.8,0-5.1-0.8-7-2.4c-2-1.7-3-3.9-3-6.6c0-2.6,1-4.8,3-6.7c2-1.8,4.3-2.7,6.9-2.7
			c3.9,0,7,1.8,9.1,5.5l-5,2.9c-1-1.8-2.4-2.6-4.1-2.6c-1.1,0-2,0.3-2.8,1c-0.9,0.7-1.4,1.6-1.4,2.6
			C465.9,360.8,466.3,361.6,467.2,362.2z"/>
		<path class="st0" d="M506.4,350.9v5.7h-5.8v23.9h-5.8v-23.9H489v-5.7H506.4z"/>
	</g>
	<path class="st0" d="M299.7,138.2c3.5-3.6,5.4-8.3,5.4-13.1v-9.1c0-2.9-2.6-5.2-5.7-5.2h-1.2v-10.3c0-1.3-0.1-2.5-0.2-3.7l0.4-4.5
		l1.9-1.5l2.1-1.7c0,0-5.5-36.3-45.4-34.9c-24.9,0.8-33.9,10.9-37.1,18.5c2.3-10,7.8-13,7.8-13C217,63.1,217.2,76,217.6,80.3
		c-1.9-0.8-6.7-2.2-9.7,1.5c0,0,3-1.8,5.7-1.1c-1.4,0.3-2.7,1-3.2,2.3c-0.7,1.7,0.9,13.1,2.7,24.3v3.4h-1.2c-3.1,0-5.7,2.3-5.7,5.2
		v9.1c0,4.8,1.9,9.5,5.4,13.1l1.6,1.6c0.2,1.1,0.7,3.6,1.7,7c-0.8,8.9-2.5,9.1-2.5,9.1c2.3,2.7,3.2,7.8,3.2,7.8
		c-2.5-1.5-4.7-6.3-4.7-6.3c1.8,44.4,28,52.8,28,52.8c-2.6-2.6-2.4-7.6-2.4-7.6c5.1,12.5,17.3,12.1,19.4,12c2,0.2,14.2,0.6,19.4-12
		c0,0,0.2,4.9-2.4,7.6c0,0,26.2-8.3,28-52.8c0,0-2.2,4.7-4.7,6.3c0,0,0.9-5,3.2-7.8c0,0-1.7-0.1-2.6-9.5c0.9-3.1,1.3-5.4,1.5-6.5
		L299.7,138.2z M233.6,167.7c16.3-3.9,21-8.8,22.1-12.1c1.1,3.3,5.8,8.3,22.1,12.1c0,0-8.2,8.1-17.8-1h-4h-0.6h-4
		C241.9,175.8,233.6,167.7,233.6,167.7z M294.9,117.8c0,0.1,0,0.1,0,0.2l0,0V117.8z M229.4,71.8c6-5.4,15.2-7.6,15.2-7.6
		C240.2,65.6,231,74,234,72c3-2,8.3-3,8.3-3c-7.4,3.1-14.5,10.5-14.5,10.5c0.4-3.2,2.4-5.4,2.4-5.4l-6.7,4.6
		C223.5,78.7,223.4,77.2,229.4,71.8z M227,85.3c2.9-0.7,5.1-1,7-1l0,0c0,0,7.1-6.4,21.7-13.5c16.1-7.8,38.6,1.7,38.6,1.7
		c-12-4.3-25.8-0.4-36.3,4.2c23.3-5.1,31.6,8,31.6,8c-15.4-16.1-47.6,0.9-47.6,0.9c3.3,0.8,7.6,1.7,15,1.7c18.2,0,24.4-7.1,31-2.4
		c4.1,2.9,5.8,17.8,6.6,28.8c-0.8-0.1-3.7-0.4-7.2-0.7c-1.8-1.8-4-3.7-5.8-3.8c-3.3-0.3-19.4,1.1-19.4,1.1s0,2.1,2,3.3
		c-2.9,0.7-5.2,1.5-7,1.7c-2.2,0.1-3.1,0.1-6.2-0.7c-0.9-0.2-2-0.6-3.5-0.9c1.5-1.2,1.6-3,1.6-3s-16.1-1.9-19.4-1.7
		c-1.9,0.1-4.5,2.3-6.3,4.1c-3.1,0.3-5.5,0.5-6.5,0.6C217.6,101.7,219.8,87.1,227,85.3z M293.1,116.2c-0.3,0-0.5-0.2-0.5-0.5
		c0-0.3,0.2-0.5,0.5-0.5c0.3,0,0.5,0.2,0.5,0.5C293.7,116,293.4,116.2,293.1,116.2z M293.7,118.2c0,0.3-0.2,0.5-0.5,0.5
		c-0.3,0-0.5-0.2-0.5-0.5c0-0.3,0.2-0.5,0.5-0.5C293.4,117.7,293.7,117.9,293.7,118.2z M288.5,115c0.2,0.1,0.4,0.2,0.6,0.3
		c1.4,1,2.3,2.9,1.7,8.2c-0.6,5.7-1.6,6.7-4.2,7.8c-2.7,1.1-14.3,2.5-19.3,0.1c0,0-3.2-1.2-5-6.8c-1.7-5.6-1.1-8.3,2.4-9.3
		c0,0,5.2-1.5,11.1-1.6C281.2,113.7,286.6,114.1,288.5,115z M280.1,112.5c1.1-0.1,2-0.1,2.6,0.1c0.2,0,0.4,0.1,0.6,0.1
		C282.2,112.7,281.2,112.6,280.1,112.5z M235.8,113.8c5.9,0.1,11.1,1.6,11.1,1.6c3.5,1,4.1,3.7,2.4,9.3c-1.7,5.6-5,6.8-5,6.8
		c-5.1,2.4-16.7,1-19.3-0.1c-2.7-1.1-3.6-2.1-4.2-7.8c-0.6-5.7,0.4-7.4,1.9-8.4C224.3,114.2,230,113.7,235.8,113.8z M227,112.8
		c0.6-0.2,1.1-0.3,1.7-0.4c0.8-0.1,1.9-0.1,3.3,0.1C230.4,112.6,228.6,112.7,227,112.8z M218.4,116.2c-0.3,0-0.5-0.2-0.5-0.5
		c0-0.3,0.2-0.5,0.5-0.5c0.3,0,0.5,0.2,0.5,0.5C218.9,116,218.7,116.2,218.4,116.2z M218.9,118.2c0,0.3-0.2,0.5-0.5,0.5
		c-0.3,0-0.5-0.2-0.5-0.5c0-0.3,0.2-0.5,0.5-0.5C218.7,117.7,218.9,117.9,218.9,118.2z M216.8,119.9c0.4,0.5,1.1,1.4,1.2,1.8
		c0.1,0.5,1.6,6.3,1.6,6.3s0.6,3.2,3.6,4.4c3,1.2,6.9,1.8,10.9,1.9c4,0.1,9,0.2,11.8-1.8c2.8-1.9,4.2-5,5.3-8.2
		c1.1-3.3,1.1-3.3,1.1-3.3s0.5-1.4,2-1.6c1.2-0.1,1.6-0.1,2.8,0c1.5,0.2,2,1.6,2,1.6s0,0,1.1,3.3c3.3,9.4,7.2,10.3,17.1,10
		c4-0.1,7.9-0.7,10.9-1.9c3-1.2,3.6-4.4,3.6-4.4s1.5-5.8,1.6-6.3c0.1-0.4,0.9-1.4,1.3-1.8c0.2,6.8,0.1,31.1-14.7,37.7
		c0,0,4.4,4.9,9.8,0.5c0,0-1.3,6.7-7.7,3.6c-6.4-3.1-18.3-17.3-26.3-9.9c0,0,0,0.1-0.1,0.2c0-0.1-0.1-0.2-0.1-0.2
		c-8-7.5-20,6.8-26.3,9.9c-6.4,3.1-7.7-3.6-7.7-3.6c5.4,4.4,9.8-0.5,9.8-0.5c-10.5-4.7-13.6-18.2-14.4-28.2
		C216.9,127.6,216.8,124.2,216.8,119.9z M214.8,139.1l-1.9-2c-3.2-3.3-5-7.6-5-12v-9.1c0-2,1.8-3.6,4-3.6h2c0.3,2.1,0.7,4.1,1,6
		l-0.1,0c0.5,10.1,0.6,17.5,0.3,22.9C214.9,139.9,214.8,139.1,214.8,139.1z M296.7,118.5l-0.7-0.2l0.6-6.3v0.5h2.9
		c2.2,0,4,1.6,4,3.6v9.1c0,4.4-1.8,8.6-5,12l-1.9,2l-0.1-0.5v0.5c0,0-0.1,0.5-0.3,1.5C296.1,135.2,296.2,128.1,296.7,118.5z"/>
</g>
</svg>
