<?xml version="1.0" encoding="utf-8"?>
<!-- Generator: Adobe Illustrator 25.0.1, SVG Export Plug-In . SVG Version: 6.00 Build 0)  -->
<svg version="1.1" id="Ebene_1" xmlns="http://www.w3.org/2000/svg" xmlns:xlink="http://www.w3.org/1999/xlink" x="0px" y="0px"
	 viewBox="0 0 74 24" style="enable-background:new 0 0 74 24;" xml:space="preserve">
<style type="text/css">
	.st0{fill:#221F1F;}
	.st1{fill:#FFFFFF;}
	.st2{fill:#29AAE1;}
	.st3{fill:#027391;}
	.st4{fill:#BBBBBB;}
</style>
<g>
	<g>
		<g>
			<path class="st0" d="M26.6,18.9c0,0.1,0,0.2-0.1,0.3c-0.1,0.1-0.2,0.1-0.3,0.1h-0.6v-2.6h0.6c0.1,0,0.3,0,0.3,0.1
				c0.1,0.1,0.1,0.2,0.1,0.3V18.9z M26.4,18.9v-1.6c0-0.1,0-0.2-0.1-0.2c0-0.1-0.1-0.1-0.2-0.1h-0.3v2.2h0.3c0.1,0,0.2,0,0.2-0.1
				C26.4,19,26.4,19,26.4,18.9z"/>
			<path class="st0" d="M30.4,19.4h-0.8v-2.6h0.8V17h-0.6v1h0.6v0.2h-0.6v1h0.6V19.4z"/>
			<path class="st0" d="M34.3,19.2c0,0.1,0,0.1-0.1,0.1l-0.1,0.1h-0.7c-0.1,0-0.1,0-0.1-0.1l-0.1-0.1v-0.7h0.2v0.6H34v-0.6l-0.7-0.9
				c0-0.1-0.1-0.1-0.1-0.2V17c0-0.1,0-0.1,0.1-0.1l0.1-0.1h0.7c0.1,0,0.1,0,0.1,0.1l0.1,0.1v0.6h-0.2V17h-0.6v0.5l0.7,0.9
				c0,0.1,0.1,0.1,0.1,0.2V19.2z"/>
			<path class="st0" d="M37.5,19.4h-0.2v-2.6h0.2V19.4z"/>
			<path class="st0" d="M41.5,19.2c0,0.1,0,0.1-0.1,0.1s-0.1,0.1-0.1,0.1h-0.7c-0.1,0-0.1,0-0.1-0.1s-0.1-0.1-0.1-0.1V17
				c0-0.1,0-0.1,0.1-0.1s0.1-0.1,0.1-0.1h0.7c0.1,0,0.1,0,0.1,0.1s0.1,0.1,0.1,0.1v0.6h-0.2V17h-0.6v2.2h0.6v-0.9H41v-0.2h0.5V19.2z
				"/>
			<path class="st0" d="M45.5,19.4h-0.2l-0.7-1.9v1.9h-0.2v-2.6h0.2l0.7,1.9v-1.9h0.2V19.4z"/>
			<path class="st0" d="M52.7,19.2c0,0.1,0,0.1-0.1,0.1l-0.1,0.1h-0.7c-0.1,0-0.1,0-0.1-0.1s-0.1-0.1-0.1-0.1v-0.7h0.2v0.6h0.6v-0.6
				l-0.7-0.9c0-0.1-0.1-0.1-0.1-0.2V17c0-0.1,0-0.1,0.1-0.1s0.1-0.1,0.1-0.1h0.7c0.1,0,0.1,0,0.1,0.1l0.1,0.1v0.6h-0.2V17h-0.6v0.5
				l0.7,0.9c0,0.1,0.1,0.1,0.1,0.2V19.2z"/>
			<path class="st0" d="M56.5,17h-0.4v2.4h-0.2V17h-0.4v-0.2h1C56.5,16.8,56.5,17,56.5,17z"/>
			<path class="st0" d="M60.4,19.2c0,0.1,0,0.1-0.1,0.1l-0.1,0.1h-0.7c-0.1,0-0.1,0-0.1-0.1s-0.1-0.1-0.1-0.1v-2.4h0.2v2.4h0.6v-2.4
				h0.2L60.4,19.2L60.4,19.2z"/>
			<path class="st0" d="M64.4,18.9c0,0.1,0,0.2-0.1,0.3c-0.1,0.1-0.2,0.1-0.3,0.1h-0.6v-2.6H64c0.1,0,0.3,0,0.3,0.1
				c0.1,0.1,0.1,0.2,0.1,0.3V18.9z M64.2,18.9v-1.6c0-0.1,0-0.2-0.1-0.2c0-0.1-0.1-0.1-0.2-0.1h-0.3v2.2h0.3c0.1,0,0.2,0,0.2-0.1
				C64.2,19,64.2,19,64.2,18.9z"/>
			<path class="st0" d="M67.6,19.4h-0.2v-2.6h0.2V19.4z"/>
			<path class="st0" d="M71.7,19.2c0,0.1,0,0.1-0.1,0.1l-0.1,0.1h-0.7c-0.1,0-0.1,0-0.1-0.1s-0.1-0.1-0.1-0.1V17
				c0-0.1,0-0.1,0.1-0.1s0.1-0.1,0.1-0.1h0.7c0.1,0,0.1,0,0.1,0.1l0.1,0.1V19.2z M71.4,19.2V17h-0.6v2.2H71.4z"/>
		</g>
		<g>
			<g>
				<path class="st1" d="M30,8.9h-0.5l-1.8,1.9h1.8V13h-1.9V7.2h-2.1v6.2c0,0.4,0.1,0.8,0.4,1.1s0.7,0.4,1.1,0.4h3
					c0.4,0,0.8-0.1,1.1-0.4c0.3-0.3,0.4-0.7,0.4-1.1v-3c0-0.4-0.1-0.8-0.4-1.1C30.7,9.1,30.4,8.9,30,8.9z"/>
				<path class="st1" d="M32.5,9.4c-0.3,0.3-0.4,0.7-0.4,1.1v3c0,0.4,0.1,0.8,0.4,1.1c0.3,0.3,0.7,0.4,1.1,0.4h1.3l1-1.9h-1.7v-2.2
					H36V15h2.1V9h-4.5C33.2,8.9,32.8,9.1,32.5,9.4z"/>
				<rect x="38.7" y="8.9" class="st1" width="2.1" height="6"/>
				<path class="st1" d="M43.2,8.9h-0.5l-1.8,1.9h1.8v4.1h2.1v-4.5c0-0.4-0.1-0.8-0.4-1.1C44,9.1,43.6,8.9,43.2,8.9z"/>
				<rect x="45.4" y="8.9" class="st1" width="2.1" height="6"/>
				<path class="st1" d="M49.9,8.9h-0.5l-1.8,1.9h1.8v4.1h2.1v-4.5c0-0.4-0.1-0.8-0.4-1.1C50.6,9.1,50.3,8.9,49.9,8.9z"/>
				<path class="st1" d="M56.5,8.9h-3c-0.4,0-0.8,0.1-1.1,0.4C52.1,9.6,52,10,52,10.4v3c0,0.4,0.1,0.8,0.4,1.1
					c0.3,0.3,0.7,0.4,1.1,0.4H58V13h-3.9v-2.2H56V13l2.1-1.1v-1.4c0-0.4-0.1-0.8-0.4-1.1C57.3,9.1,56.9,8.9,56.5,8.9z"/>
				<polygon class="st1" points="58.6,10.9 58.6,14.9 60.7,14.9 60.7,10.8 61.8,10.8 61.8,8.9 60.5,8.9 				"/>
				<path class="st1" d="M66.8,8.9h-3c-0.4,0-0.8,0.1-1.1,0.4c-0.3,0.3-0.4,0.7-0.4,1.1v3c0,0.4,0.1,0.8,0.4,1.1
					c0.3,0.3,0.7,0.4,1.1,0.4h4.5V13h-3.9v-2.2h1.9V13l2.1-1.1v-1.4c0-0.4-0.1-0.8-0.4-1.1C67.5,9.1,67.2,8.9,66.8,8.9z"/>
				<polygon class="st1" points="71.7,8.9 71.7,7.2 68.5,10.8 69.6,10.8 69.6,14.9 71.7,14.9 71.7,10.8 73.3,10.8 73.3,8.9 				"/>
			</g>
			<path class="st0" d="M73.3,8.2h-1v-1V5.5l-1.1,1.3l-2.4,2.8c-0.1-0.2-0.3-0.5-0.5-0.7c-0.4-0.4-0.9-0.6-1.5-0.6h-3
				c-0.5,0-1,0.2-1.3,0.5V8.2h-0.7h-1.3h-0.3L60,8.4l-1.4,1.5c-0.1-0.4-0.3-0.7-0.6-1c-0.4-0.4-0.9-0.6-1.5-0.6h-3
				c-0.6,0-1.1,0.2-1.5,0.6c-0.1,0.1-0.2,0.2-0.3,0.4c-0.1-0.1-0.2-0.2-0.3-0.3c-0.4-0.4-0.9-0.6-1.5-0.6h-0.5h-0.3l-0.2,0.2
				l-0.8,0.8V8.9V8.2h-0.7h-2.1h-0.7v0.6c-0.4-0.4-0.9-0.6-1.5-0.6h-0.5h-0.3l-0.2,0.2l-0.8,0.8V8.9V8.2h-0.7h-2h-0.1h-0.6h-0.1
				h-4.5c-0.6,0-1.1,0.2-1.5,0.6c0.2,0.2,0.1,0.3,0,0.4c-0.1-0.1-0.2-0.2-0.3-0.4c-0.4-0.4-0.9-0.6-1.5-0.6h-0.5h-0.3L29,8.4
				l-0.8,0.8v-2V6.5h-0.7h-2.1h-0.7v0.7v6.2c0,0.6,0.2,1.1,0.6,1.5s0.9,0.6,1.5,0.6h3c0.6,0,1.1-0.2,1.5-0.6
				c0.1-0.1,0.2-0.2,0.3-0.4c0.1,0.1,0.2,0.2,0.3,0.4c0.4,0.4,0.9,0.6,1.5,0.6h1.3h0.4l0.1-0.2v0.2H36h2h0.1h0.6h0.1h2h0.7v-0.7
				v-3.5H42v3.5v0.7h0.7h2h0.1h0.6h0.1h2h0.7v-0.7v-3.5h0.6v3.5v0.7h0.7h2.1H52V15c0.4,0.4,0.9,0.6,1.5,0.6H58l0,0h0.6h0.1h2h0.7
				v-0.7v-3.5h0.2v2c0,0.6,0.2,1.1,0.6,1.5c0.4,0.4,0.9,0.6,1.5,0.6h4.5h0.2h0.4l0,0H69h0.5h2.1h0.7v-0.7v-3.5h1H74v-0.7V8.9V8.2
				H73.3z M31.5,13.4c0,0.1,0,0.1,0,0.2l0,0c0,0.1,0,0.1,0,0.2l0,0c-0.1,0.3-0.2,0.5-0.4,0.8C30.8,14.9,30.4,15,30,15h-3
				c-0.4,0-0.8-0.1-1.1-0.4c-0.3-0.3-0.4-0.7-0.4-1.1V7.2h2.1V13h1.9v-2.2h-1.8l1.8-1.9H30c0.4,0,0.8,0.1,1.1,0.4
				c0.2,0.2,0.4,0.5,0.4,0.8c0,0,0,0.1,0,0.2l0,0c0,0.1,0,0.1,0,0.2V13.4z M28.2,12.4v-0.9h0.5v0.9H28.2z M38.1,14.9L38.1,14.9H36
				v-4.1h-1.9V13h1.7l-1,1.9h-1.3c-0.4,0-0.8-0.1-1.1-0.4C32.2,14.3,32,14,32,13.7l0,0c0,0,0-0.1,0-0.2l0,0c0-0.1,0-0.1,0-0.2v-3
				c0-0.1,0-0.1,0-0.2l0,0c0-0.1,0-0.1,0-0.2l0,0c0.1-0.3,0.2-0.5,0.4-0.8c0.3-0.3,0.7-0.4,1.1-0.4H38h0.1V14.9z M35.4,11.5v0.9
				h-0.6v-0.9H35.4z M40.8,14.9h-2h-0.1v-6h0.1h2V14.9z M44.7,14.9L44.7,14.9h-2.1v-4.1h-1.8l1.8-1.9h0.5c0.4,0,0.8,0.1,1.1,0.4
				c0.2,0.2,0.3,0.4,0.4,0.7c0,0.1,0,0.1,0,0.2c0,0,0,0,0,0.1c0,0,0,0,0,0.1v0.1L44.7,14.9L44.7,14.9z M47.4,14.9h-2h-0.1v-5v-1h2.1
				V14.9z M51.4,13.9v1h-2.1v-4.1h-1.8l1.8-1.9h0.5c0.4,0,0.8,0.1,1.1,0.4c0.2,0.2,0.4,0.5,0.4,0.8c0,0,0,0.1,0,0.2l0,0
				c0,0.1,0,0.1,0,0.2L51.4,13.9L51.4,13.9z M58,10.6v1.3L55.9,13v-2.2H54V13h4l0,0v1.9l0,0h-4.5c-0.4,0-0.8-0.1-1.1-0.4
				c-0.2-0.2-0.3-0.4-0.4-0.7c0-0.1,0-0.1,0-0.2c0,0,0,0,0-0.1c0,0,0,0,0-0.1v-0.1v-3c0-0.1,0-0.1,0-0.2l0,0c0-0.1,0-0.1,0-0.2
				c0.1-0.3,0.2-0.5,0.4-0.8c0.3-0.3,0.7-0.4,1.1-0.4h3c0.4,0,0.8,0.1,1.1,0.4C57.9,9.7,58,10,58,10.4V10.6z M55.3,11.5v0.9h-0.5
				v-0.9H55.3z M61.8,9.6v1.2h-0.2h-0.9v4.1h-2h-0.1v-2.6v-0.1v-1.4l1.9-2h1.3V9.6z M68.3,11.5v0.4L66.2,13v-2.2h-1.9V13h3.9v1.9
				h-4.5c-0.4,0-0.8-0.1-1.1-0.4c-0.3-0.3-0.4-0.7-0.4-1.1v-2v-1v-0.1l0,0v-0.1l0,0v-0.1l0,0V10l0,0c0,0,0-0.1,0.1-0.1l0,0
				c0.1-0.1,0.2-0.2,0.3-0.4c0.3-0.3,0.7-0.4,1.1-0.4h3c0.4,0,0.8,0.1,1.1,0.4c0.2,0.2,0.4,0.5,0.4,0.8v0.1l0,0c0,0.1,0,0.1,0,0.2
				v0.9H68.3z M65.5,11.5v0.9H65v-0.9H65.5z M73.3,10.8h-1.7v4.1h-2.1v-4.1h-0.7h-0.4l3.1-3.6v1.7h1.7L73.3,10.8L73.3,10.8z"/>
		</g>
	</g>
	<g>
		<g>
			<g>
				<path class="st0" d="M4,5.5c-1,0-1.9,0.4-2.7,1.1S0.1,8.2,0.1,9.3v6.3c0,1,0.4,1.9,1.1,2.7C2,19,2.9,19.4,4,19.4h6.3
					c0.1,0,0.1,0,0.2,0l0,0h9.2c1,0,1.9-0.4,2.7-1.1c0.7-0.7,1.1-1.7,1.1-2.7V9.3c0-1-0.4-1.9-1.1-2.7c-0.7-0.7-1.7-1.1-2.7-1.1
					h-6.3c-0.1,0-0.1,0-0.2,0l0,0C13.2,5.5,4,5.5,4,5.5z M19.6,6.1c0.9,0,1.6,0.3,2.2,0.9s0.9,1.4,0.9,2.2v6.3
					c0,0.9-0.3,1.6-0.9,2.2s-1.4,0.9-2.2,0.9h-7.2c0.2-0.1,0.4-0.3,0.5-0.5c0.8-0.8,1.1-1.7,1.1-2.7v-1.2h4.7v-3.9H14V14l-4-3.8V9.3
					c0-0.9,0.3-1.6,0.9-2.2c0.6-0.6,1.4-0.9,2.2-0.9h6.5V6.1z M18.2,13.7h-3.4v-2.6h3.4V13.7z M11.1,6.1c-0.2,0.1-0.4,0.3-0.5,0.5
					C9.9,7.3,9.5,8.2,9.5,9.3v1.2H4.8v3.9h4.7v-3.7l4,3.8v1.1c0,0.9-0.3,1.6-0.9,2.2c-0.6,0.6-1.4,0.9-2.2,0.9H4
					c-0.9,0-1.6-0.3-2.2-0.9s-0.9-1.4-0.9-2.2V9.3c0-0.9,0.3-1.6,0.9-2.2c0.6-0.7,1.3-1,2.2-1H11.1z M5.4,11.1h3.4v2.6H5.4V11.1z"/>
				<path class="st2" d="M13.4,15.6v-1.1l-4-3.8v3.7H4.8v-3.9h4.7V9.3c0-1,0.4-2,1.1-2.7c0.2-0.2,0.3-0.3,0.5-0.5H4
					C3.1,6.1,2.4,6.4,1.7,7C1.1,7.7,0.8,8.4,0.8,9.3v6.3c0,0.9,0.3,1.6,0.9,2.2s1.4,0.9,2.2,0.9h6.3c0.9,0,1.6-0.3,2.2-0.9
					C13.1,17.2,13.4,16.4,13.4,15.6z"/>
				<path class="st1" d="M10.2,9.3v1.1l4,3.8v-3.7h4.7v3.9h-4.7v1.2c0,1-0.4,2-1.1,2.7c-0.2,0.2-0.3,0.3-0.5,0.5h7.2
					c0.9,0,1.6-0.3,2.2-0.9s0.9-1.4,0.9-2.2V9.3c0-0.9-0.3-1.6-0.9-2.2s-1.4-0.9-2.2-0.9h-6.3c-0.9,0-1.6,0.3-2.2,0.9
					C10.5,7.7,10.2,8.4,10.2,9.3z"/>
			</g>
			<rect x="14.8" y="11.1" class="st2" width="3.4" height="2.6"/>
			<rect x="5.4" y="11.1" class="st1" width="3.4" height="2.6"/>
		</g>
		<g>
			<polygon class="st3" points="9.4,11.3 9.4,14.4 5.6,14.4 5.6,15.2 10.2,15.2 10.2,11.4 13.4,14.5 13.4,14.5 10.1,11.3 			"/>
			<path class="st3" d="M1.7,17.8c0.1,0.1,0.3,0.3,0.4,0.4c-0.4-0.5-0.6-1.1-0.6-1.8v-6.3c0-0.9,0.3-1.6,0.9-2.2S3.8,7,4.6,7h5.5
				c0.1-0.1,0.2-0.2,0.3-0.4c0.2-0.2,0.3-0.3,0.5-0.5H4C3.1,6.1,2.4,6.4,1.7,7C1.1,7.7,0.8,8.4,0.8,9.3v6.3
				C0.8,16.4,1.1,17.2,1.7,17.8z"/>
		</g>
		<g>
			<path class="st4" d="M14.9,16.4v-1.2h4.7v-3.9h-0.8v3.1h-3.9V15l-0.7-0.7H14v1.2c0,1-0.4,2-1.1,2.7c-0.2,0.2-0.3,0.3-0.5,0.5h1.7
				C14.6,18,14.9,17.3,14.9,16.4z"/>
			<path class="st4" d="M11,11.1V10c0-0.9,0.3-1.6,0.9-2.2c0.6-0.6,1.4-0.9,2.2-0.9h6.3c0.7,0,1.3,0.2,1.8,0.6
				C22.1,7.3,22,7.2,21.8,7c-0.6-0.6-1.4-0.9-2.2-0.9h-6.3c-0.9,0-1.6,0.3-2.2,0.9c-0.6,0.6-0.9,1.4-0.9,2.2v1.1L11,11.1z"/>
		</g>
		<polygon class="st4" points="6.2,13.7 6.2,11.9 8.8,11.9 8.8,11.1 5.4,11.1 5.4,13.7 		"/>
		<polygon class="st3" points="15.6,13.7 15.6,11.9 18.2,11.9 18.2,11.1 14.8,11.1 14.8,13.7 		"/>
	</g>
</g>
</svg>
