<?xml version="1.0" encoding="utf-8"?>
<!-- Generator: Adobe Illustrator 25.0.1, SVG Export Plug-In . SVG Version: 6.00 Build 0)  -->
<svg version="1.1" id="Layer_1" xmlns="http://www.w3.org/2000/svg" xmlns:xlink="http://www.w3.org/1999/xlink" x="0px" y="0px"
	 viewBox="0 0 50.2 44.9" style="enable-background:new 0 0 50.2 44.9;" xml:space="preserve">
<style type="text/css">
	.st0{fill:#221F1F;}
	.st1{fill:#FFFFFF;}
	.st2{fill:#29AAE1;}
	.st3{fill:#027391;}
	.st4{fill:#BBBBBB;}
</style>
<g>
	<g>
		<path class="st0" d="M2.8,43.8c0,0.1,0,0.2-0.1,0.3c-0.1,0.1-0.2,0.1-0.3,0.1H1.7v-2.5h0.6c0.1,0,0.2,0,0.3,0.1
			c0.1,0.1,0.1,0.2,0.1,0.3V43.8z M2.6,43.8v-1.6c0-0.1,0-0.2-0.1-0.2s-0.1-0.1-0.2-0.1H2v2.1h0.3c0.1,0,0.2,0,0.2-0.1
			C2.5,43.9,2.6,43.9,2.6,43.8z"/>
		<path class="st0" d="M6.5,44.3H5.7v-2.5h0.8v0.2H5.9v0.9h0.5v0.2H5.9v1h0.6V44.3z"/>
		<path class="st0" d="M10.3,44.1c0,0.1,0,0.1,0,0.1c0,0-0.1,0.1-0.1,0.1H9.5c-0.1,0-0.1,0-0.1-0.1c0,0-0.1-0.1-0.1-0.1v-0.6h0.2
			v0.6h0.5v-0.6l-0.7-0.8c0-0.1-0.1-0.1-0.1-0.2v-0.5c0-0.1,0-0.1,0.1-0.1s0.1-0.1,0.1-0.1h0.6c0.1,0,0.1,0,0.1,0.1c0,0,0,0.1,0,0.1
			v0.6h-0.2v-0.6H9.5v0.5l0.7,0.8c0,0.1,0.1,0.1,0.1,0.2V44.1z"/>
		<path class="st0" d="M13.4,44.3h-0.2v-2.5h0.2V44.3z"/>
		<path class="st0" d="M17.4,44.1c0,0.1,0,0.1-0.1,0.1c0,0-0.1,0.1-0.1,0.1h-0.7c-0.1,0-0.1,0-0.1-0.1c0,0-0.1-0.1-0.1-0.1v-2.2
			c0-0.1,0-0.1,0.1-0.1c0,0,0.1-0.1,0.1-0.1h0.7c0.1,0,0.1,0,0.1,0.1s0.1,0.1,0.1,0.1v0.6h-0.2v-0.6h-0.6v2.1h0.6v-0.9h-0.3V43h0.5
			V44.1z"/>
		<path class="st0" d="M21.3,44.3h-0.2l-0.7-1.9v1.9h-0.2v-2.5h0.2l0.7,1.8v-1.8h0.2V44.3z"/>
		<path class="st0" d="M28.3,44.1c0,0.1,0,0.1,0,0.1c0,0-0.1,0.1-0.1,0.1h-0.6c-0.1,0-0.1,0-0.1-0.1c0,0-0.1-0.1-0.1-0.1v-0.6h0.2
			v0.6h0.5v-0.6l-0.7-0.8c0-0.1-0.1-0.1-0.1-0.2v-0.5c0-0.1,0-0.1,0.1-0.1c0,0,0.1-0.1,0.1-0.1h0.6c0.1,0,0.1,0,0.1,0.1
			c0,0,0,0.1,0,0.1v0.6h-0.2v-0.6h-0.5v0.5l0.7,0.8c0,0.1,0.1,0.1,0.1,0.2V44.1z"/>
		<path class="st0" d="M32.1,41.9h-0.4v2.3h-0.2v-2.3h-0.4v-0.2h1V41.9z"/>
		<path class="st0" d="M35.9,44.1c0,0.1,0,0.1-0.1,0.1c0,0-0.1,0.1-0.1,0.1H35c-0.1,0-0.1,0-0.1-0.1c0,0-0.1-0.1-0.1-0.1v-2.4h0.2
			v2.3h0.6v-2.3h0.2V44.1z"/>
		<path class="st0" d="M39.8,43.8c0,0.1,0,0.2-0.1,0.3c-0.1,0.1-0.2,0.1-0.3,0.1h-0.6v-2.5h0.6c0.1,0,0.2,0,0.3,0.1
			c0.1,0.1,0.1,0.2,0.1,0.3V43.8z M39.6,43.8v-1.6c0-0.1,0-0.2-0.1-0.2c-0.1-0.1-0.1-0.1-0.2-0.1H39v2.1h0.3c0.1,0,0.2,0,0.2-0.1
			S39.6,43.9,39.6,43.8z"/>
		<path class="st0" d="M42.9,44.3h-0.2v-2.5h0.2V44.3z"/>
		<path class="st0" d="M46.9,44.1c0,0.1,0,0.1-0.1,0.1c0,0-0.1,0.1-0.1,0.1H46c-0.1,0-0.1,0-0.1-0.1c0,0-0.1-0.1-0.1-0.1v-2.2
			c0-0.1,0-0.1,0.1-0.1s0.1-0.1,0.1-0.1h0.7c0.1,0,0.1,0,0.1,0.1c0,0,0.1,0.1,0.1,0.1V44.1z M46.7,44.1v-2.1h-0.6v2.1H46.7z"/>
	</g>
	<g>
		<g>
			<path class="st1" d="M6,34H5.5l-1.8,1.9h1.7v2.2H3.7v-5.7h-2v6.1c0,0.4,0.1,0.8,0.4,1c0.3,0.3,0.6,0.4,1,0.4H6
				c0.4,0,0.8-0.1,1-0.4c0.3-0.3,0.4-0.6,0.4-1v-2.9c0-0.4-0.1-0.8-0.4-1C6.8,34.2,6.4,34,6,34z"/>
			<path class="st1" d="M8.6,34.5c-0.3,0.3-0.4,0.6-0.4,1v2.9c0,0.4,0.1,0.8,0.4,1c0.3,0.3,0.6,0.4,1,0.4h1.3l1-1.9h-1.7v-2.2H12
				v4.1h2V34H9.6C9.2,34,8.9,34.2,8.6,34.5z"/>
			<rect x="14.6" y="34" class="st1" width="2" height="5.9"/>
			<path class="st1" d="M19.1,34h-0.5l-1.8,1.9h1.7v4.1h2v-4.4c0-0.4-0.1-0.8-0.4-1C19.8,34.2,19.5,34,19.1,34z"/>
			<rect x="21.1" y="34" class="st1" width="2" height="5.9"/>
			<path class="st1" d="M25.6,34H25l-1.8,1.9H25v4.1h2v-4.4c0-0.4-0.1-0.8-0.4-1C26.3,34.2,26,34,25.6,34z"/>
			<path class="st1" d="M32.1,34h-2.9c-0.4,0-0.8,0.1-1,0.4c-0.3,0.3-0.4,0.6-0.4,1v2.9c0,0.4,0.1,0.8,0.4,1c0.3,0.3,0.6,0.4,1,0.4
				h4.4v-1.9h-3.9v-2.2h1.8V38l2-1.1v-1.4c0-0.4-0.1-0.8-0.4-1C32.8,34.2,32.5,34,32.1,34z"/>
			<polygon class="st1" points="34.1,35.9 34.1,39.9 36.2,39.9 36.2,35.9 37.2,35.9 37.2,34 36,34 			"/>
			<path class="st1" d="M42.1,34h-2.9c-0.4,0-0.8,0.1-1,0.4c-0.3,0.3-0.4,0.6-0.4,1v2.9c0,0.4,0.1,0.8,0.4,1c0.3,0.3,0.6,0.4,1,0.4
				h4.4v-1.9h-3.9v-2.2h1.8V38l2-1.1v-1.4c0-0.4-0.1-0.8-0.4-1C42.9,34.2,42.5,34,42.1,34z"/>
			<polygon class="st1" points="46.9,34 46.9,32.3 43.9,35.9 44.9,35.9 44.9,39.9 46.9,39.9 46.9,35.9 48.6,35.9 48.6,34 			"/>
		</g>
		<path class="st0" d="M48.6,33.4h-1v-1v-1.7l-1.1,1.3l-2.4,2.7c-0.1-0.2-0.3-0.4-0.4-0.6c-0.4-0.4-0.9-0.6-1.5-0.6h-2.9
			c-0.5,0-0.9,0.2-1.3,0.5v-0.5h-0.6H36h-0.3l-0.2,0.2L34.1,35c-0.1-0.4-0.3-0.7-0.6-1c-0.4-0.4-0.9-0.6-1.5-0.6h-2.9
			c-0.6,0-1.1,0.2-1.5,0.6c-0.1,0.1-0.2,0.2-0.3,0.3c-0.1-0.1-0.2-0.2-0.3-0.3c-0.4-0.4-0.9-0.6-1.5-0.6H25h-0.3l-0.2,0.2l-0.8,0.8
			V34v-0.6h-0.6h-2h-0.6v0.6c-0.4-0.4-0.9-0.6-1.4-0.6h-0.5h-0.3l-0.2,0.2l-0.8,0.8V34v-0.6h-0.6h-2h-0.1H14H14H9.6
			c-0.6,0-1.1,0.2-1.5,0.6c-0.1,0.1-0.2,0.2-0.3,0.3c-0.1-0.1-0.2-0.2-0.3-0.3c-0.4-0.4-0.9-0.6-1.5-0.6H5.5H5.3l-0.2,0.2l-0.8,0.8
			v-2v-0.6H3.7h-2H1v0.6v6.1c0,0.6,0.2,1.1,0.6,1.5c0.4,0.4,0.9,0.6,1.5,0.6H6c0.6,0,1.1-0.2,1.5-0.6c0.1-0.1,0.2-0.2,0.3-0.3
			c0.1,0.1,0.2,0.2,0.3,0.3c0.4,0.4,0.9,0.6,1.5,0.6h1.3h0.4l0.1-0.2v0.2H12h2H14h0.6h0.1h2h0.6v-0.6v-3.4h0.5v3.4v0.6h0.6h2h0.1
			h0.6h0.1h2h0.6v-0.6v-3.4h0.5v3.4v0.6H25h2h0.6V40c0.4,0.4,0.9,0.6,1.4,0.6h4.4h0.1h0.6h0.1h2h0.6v-0.6v-3.4h0.2v1.9
			c0,0.6,0.2,1.1,0.6,1.5c0.4,0.4,0.9,0.6,1.5,0.6h4.4h0.2h0.4h0h0.2h0.4h2h0.6v-0.6v-3.4h1h0.6v-0.6V34v-0.6H48.6z M7.5,38.4
			c0,0.1,0,0.1,0,0.2c0,0,0,0,0,0c0,0.1,0,0.1,0,0.1v0c-0.1,0.3-0.2,0.5-0.4,0.7c-0.3,0.3-0.6,0.4-1,0.4H3.1c-0.4,0-0.8-0.1-1-0.4
			c-0.3-0.3-0.4-0.6-0.4-1v-6.1h2v5.7h1.8v-2.2H3.7L5.5,34H6c0.4,0,0.8,0.1,1,0.4c0.2,0.2,0.4,0.5,0.4,0.7c0,0,0,0.1,0,0.1
			c0,0,0,0,0,0c0,0.1,0,0.1,0,0.2V38.4z M4.3,37.4v-0.9h0.5v0.9H4.3z M14,39.9L14,39.9h-2v-4.1h-1.8v2.2h1.7l-1,1.9H9.6
			c-0.4,0-0.8-0.1-1-0.4c-0.2-0.2-0.4-0.5-0.4-0.7v0c0,0,0-0.1,0-0.1c0,0,0,0,0,0c0-0.1,0-0.1,0-0.2v-2.9c0-0.1,0-0.1,0-0.2
			c0,0,0,0,0,0c0-0.1,0-0.1,0-0.1v0c0.1-0.3,0.2-0.5,0.4-0.7c0.3-0.3,0.6-0.4,1-0.4H14H14V39.9z M11.4,36.5v0.9h-0.5v-0.9H11.4z
			 M16.7,39.9h-2h-0.1V34h0.1h2V39.9z M20.5,39.9L20.5,39.9h-2v-4.1h-1.7l1.8-1.9h0.5c0.4,0,0.8,0.1,1,0.4c0.2,0.2,0.3,0.4,0.4,0.7
			c0,0.1,0,0.1,0,0.2c0,0,0,0,0,0.1c0,0,0,0,0,0.1c0,0,0,0.1,0,0.1V39.9z M23.2,39.9h-2h-0.1V35v-1h2V39.9z M27,38.9v1h-2v-4.1h-1.7
			L25,34h0.5c0.4,0,0.8,0.1,1,0.4c0.2,0.2,0.4,0.5,0.4,0.7c0,0,0,0.1,0,0.1c0,0,0,0,0,0c0,0.1,0,0.1,0,0.2V38.9z M33.5,35.6v1.2
			l-2,1.1v-2.1h-1.8v2.2h3.8h0.1v1.9h-0.1h-4.4c-0.4,0-0.8-0.1-1-0.4c-0.2-0.2-0.3-0.4-0.4-0.7c0-0.1,0-0.1,0-0.2c0,0,0,0,0-0.1
			c0,0,0,0,0-0.1c0,0,0-0.1,0-0.1v-2.9c0-0.1,0-0.1,0-0.2c0,0,0,0,0,0c0-0.1,0-0.1,0-0.1c0.1-0.3,0.2-0.5,0.4-0.7
			c0.3-0.3,0.6-0.4,1-0.4h2.9c0.4,0,0.8,0.1,1,0.4c0.3,0.3,0.4,0.6,0.4,1V35.6z M30.9,36.5v0.9h-0.5v-0.9H30.9z M37.2,34.7v1.2h-0.2
			h-0.9v4.1h-2h-0.1v-2.5v-0.1v-1.3L36,34h1.2V34.7z M43.6,36.5v0.4l-2,1.1v-2.1h-1.8v2.2h3.9v1.9h-4.4c-0.4,0-0.8-0.1-1-0.4
			c-0.3-0.3-0.4-0.6-0.4-1v-1.9v-1c0,0,0-0.1,0-0.1c0,0,0,0,0,0c0,0,0-0.1,0-0.1c0,0,0,0,0,0c0,0,0-0.1,0-0.1c0,0,0,0,0,0
			c0,0,0-0.1,0-0.1c0,0,0,0,0,0c0,0,0-0.1,0.1-0.1c0,0,0,0,0,0c0.1-0.1,0.2-0.2,0.3-0.4c0.3-0.3,0.6-0.4,1-0.4h2.9
			c0.4,0,0.8,0.1,1,0.4c0.2,0.2,0.4,0.5,0.4,0.7c0,0,0,0.1,0,0.1c0,0,0,0,0,0c0,0,0,0.1,0,0.2V36.5z M40.9,36.5v0.9h-0.5v-0.9H40.9z
			 M48.6,35.9h-1.7v4.1h-2v-4.1h-0.6h-0.4l3.1-3.5V34h1.7V35.9z"/>
	</g>
	<g>
		<g>
			<g>
				<path class="st0" d="M8.9,0.6c-2.1,0-4,0.8-5.6,2.3C1.8,4.5,1,6.4,1,8.5v13c0,2.1,0.8,4,2.3,5.6c1.6,1.6,3.4,2.3,5.6,2.3h13
					c0.1,0,0.2,0,0.3,0l0,0h19.1c2.1,0,4-0.8,5.6-2.3c1.6-1.6,2.3-3.4,2.3-5.6v-13c0-2.1-0.8-4-2.3-5.6c-1.6-1.6-3.4-2.3-5.6-2.3
					h-13c-0.1,0-0.2,0-0.3,0l0,0H8.9z M41.3,2c1.8,0,3.3,0.6,4.6,1.9c1.3,1.3,1.9,2.8,1.9,4.6v13c0,1.8-0.6,3.3-1.9,4.6
					c-1.3,1.3-2.8,1.9-4.6,1.9H26.4c0.4-0.3,0.8-0.6,1.1-0.9c1.6-1.6,2.4-3.5,2.4-5.6v-2.5h9.7v-8H30v7.7l-8.2-7.9V8.5
					c0-1.8,0.6-3.3,1.9-4.6C25,2.6,26.5,2,28.3,2H41.3z M38.3,17.7h-7v-5.4h7V17.7z M23.8,2c-0.4,0.3-0.8,0.6-1.1,0.9
					c-1.6,1.6-2.4,3.5-2.4,5.6V11h-9.7v8h9.7v-7.7l8.2,7.9v2.3c0,1.8-0.6,3.3-1.9,4.6c-1.3,1.3-2.8,1.9-4.6,1.9h-13
					c-1.8,0-3.3-0.6-4.6-1.9c-1.3-1.3-1.9-2.8-1.9-4.6v-13c0-1.8,0.6-3.3,1.9-4.6C5.6,2.6,7.1,2,8.9,2H23.8z M11.9,12.4h7v5.4h-7
					V12.4z"/>
				<path class="st2" d="M28.5,21.6v-2.3l-8.2-7.9v7.7h-9.7v-8h9.7V8.5c0-2.2,0.8-4.1,2.4-5.6C23,2.6,23.4,2.2,23.8,2H8.9
					C7.1,2,5.6,2.6,4.3,3.9C3,5.2,2.3,6.8,2.3,8.5v13c0,1.8,0.6,3.3,1.9,4.6c1.3,1.3,2.8,1.9,4.6,1.9h13c1.8,0,3.3-0.6,4.6-1.9
					C27.8,24.9,28.5,23.3,28.5,21.6z"/>
				<path class="st1" d="M21.7,8.5v2.3l8.2,7.9V11h9.7v8h-9.7v2.5c0,2.2-0.8,4.1-2.4,5.6c-0.4,0.4-0.7,0.7-1.1,0.9h14.9
					c1.8,0,3.3-0.6,4.6-1.9c1.3-1.3,1.9-2.8,1.9-4.6v-13c0-1.8-0.6-3.3-1.9-4.6C44.6,2.6,43.1,2,41.3,2h-13c-1.8,0-3.3,0.6-4.6,1.9
					C22.4,5.2,21.7,6.8,21.7,8.5z"/>
			</g>
			<rect x="31.3" y="12.4" class="st2" width="7" height="5.4"/>
			<rect x="11.9" y="12.4" class="st1" width="7" height="5.4"/>
		</g>
		<g>
			<polygon class="st3" points="20.2,12.7 20.2,19.1 12.2,19.1 12.2,20.7 21.9,20.7 21.9,13 28.5,19.4 28.5,19.3 21.6,12.7 			"/>
			<path class="st3" d="M4.3,26.2c0.3,0.3,0.6,0.5,0.9,0.8C4.4,25.9,4,24.6,4,23.2v-13c0-1.8,0.6-3.3,1.9-4.6
				c1.3-1.3,2.8-1.9,4.6-1.9H22c0.2-0.3,0.4-0.5,0.7-0.7C23,2.6,23.4,2.2,23.8,2H8.9C7.1,2,5.6,2.6,4.3,3.9C3,5.2,2.3,6.8,2.3,8.5
				v13C2.3,23.3,3,24.9,4.3,26.2z"/>
		</g>
		<g>
			<path class="st4" d="M31.6,23.2v-2.5h9.7v-8h-1.7v6.4h-8v1.4l-1.4-1.4h-0.3v2.5c0,2.2-0.8,4.1-2.4,5.6c-0.4,0.4-0.7,0.7-1.1,0.9
				h3.4C31,26.7,31.6,25.1,31.6,23.2z"/>
			<path class="st4" d="M23.4,12.4v-2.2c0-1.8,0.6-3.3,1.9-4.6c1.3-1.3,2.8-1.9,4.6-1.9h13c1.4,0,2.6,0.4,3.7,1.2
				c-0.2-0.3-0.5-0.6-0.8-0.9C44.6,2.6,43.1,2,41.3,2h-13c-1.8,0-3.3,0.6-4.6,1.9c-1.3,1.3-1.9,2.8-1.9,4.6v2.3L23.4,12.4z"/>
		</g>
		<polygon class="st4" points="13.6,17.7 13.6,14 18.9,14 18.9,12.4 11.9,12.4 11.9,17.7 		"/>
		<polygon class="st3" points="33,17.7 33,14 38.3,14 38.3,12.4 31.3,12.4 31.3,17.7 		"/>
	</g>
</g>
</svg>
