<?xml version="1.0" encoding="utf-8"?>
<!-- Generator: Adobe Illustrator 25.0.1, SVG Export Plug-In . SVG Version: 6.00 Build 0)  -->
<svg version="1.1" id="Capa_1" xmlns="http://www.w3.org/2000/svg" xmlns:xlink="http://www.w3.org/1999/xlink" x="0px" y="0px"
	 viewBox="0 0 512 512" style="enable-background:new 0 0 512 512;" xml:space="preserve">
<style type="text/css">
	.st0{fill:#29AAE1;}
</style>
<g>
	<path class="st0" d="M498.6,11.5H13.4C7.1,11.5,1.9,16.6,1.9,23v230.1c0,6.3,5.1,11.5,11.5,11.5h485.2c6.3,0,11.5-5.1,11.5-11.5V23
		C510.1,16.6,504.9,11.5,498.6,11.5z M487.1,241.6H24.9V34.5h462.2V241.6z"/>
	<path class="st0" d="M498.6,278.6c-6.3,0-11.5,5.1-11.5,11.5v9h-74v-9c0-6.3-5.1-11.5-11.5-11.5s-11.5,5.1-11.5,11.5v9h-74v-9
		c0-6.3-5.1-11.5-11.5-11.5c-6.3,0-11.5,5.1-11.5,11.5v9h-74v-9c0-6.3-5.1-11.5-11.5-11.5s-11.5,5.1-11.5,11.5v9h-74v-9
		c0-6.3-5.1-11.5-11.5-11.5S99,283.8,99,290.1v9h-74v-9c0-6.3-5.1-11.5-11.5-11.5s-11.5,5.1-11.5,11.5v20.5
		c0,6.3,5.1,11.5,11.5,11.5h202.3V489c0,6.3,5.1,11.5,11.5,11.5s11.5-5.1,11.5-11.5V322.1h34.5V489c0,6.3,5.1,11.5,11.5,11.5
		s11.5-5.1,11.5-11.5V322.1h202.3c6.3,0,11.5-5.1,11.5-11.5v-20.5C510.1,283.8,504.9,278.6,498.6,278.6z"/>
</g>
</svg>
