<?xml version="1.0" encoding="utf-8"?>
<!-- Generator: Adobe Illustrator 25.0.1, SVG Export Plug-In . SVG Version: 6.00 Build 0)  -->
<svg version="1.1" id="Capa_1" xmlns="http://www.w3.org/2000/svg" xmlns:xlink="http://www.w3.org/1999/xlink" x="0px" y="0px"
	 viewBox="0 0 512 512" style="enable-background:new 0 0 512 512;" xml:space="preserve">
<style type="text/css">
	.st0{fill:#29AAE1;}
</style>
<g>
	<g>
		<path class="st0" d="M326.8,70.8c-5-34.7-35.2-60.9-70.3-60.9c-22.6,0-44,10.9-57.4,29.2c-2.7,3.7-1.9,9,1.8,11.7
			c3.7,2.7,9,1.9,11.7-1.8c10.2-14,26.6-22.3,43.9-22.3c26.9,0,50,20,53.8,46.6c0.6,4.2,4.2,7.2,8.3,7.2c0.4,0,0.8,0,1.2-0.1
			C324.3,79.6,327.5,75.4,326.8,70.8z"/>
	</g>
</g>
<g>
	<g>
		<path class="st0" d="M447.5,164.4l-25.1-41.8c-1.5-2.5-4.2-4.1-7.2-4.1h-24c-4.6,0-8.4,3.7-8.4,8.4s3.7,8.4,8.4,8.4h19.3l15,25.1
			H87.4l15-25.1h8.8c4.6,0,8.4-3.7,8.4-8.4c0-4.6-3.7-8.4-8.4-8.4H97.7c-2.9,0-5.7,1.5-7.2,4.1l-25.1,41.8c-1.5,2.6-1.6,5.8-0.1,8.4
			c1.5,2.6,4.3,4.2,7.3,4.2h367.7c3,0,5.8-1.6,7.3-4.2S449,166.9,447.5,164.4z"/>
	</g>
</g>
<g>
	<g>
		<path class="st0" d="M405.8,87.3c-1.2-1.9-3-3.2-5.2-3.7L286.7,56.9c-2.2-0.5-4.4-0.1-6.3,1c-1.9,1.2-3.2,3-3.7,5.2l-8.6,36.7
			c-1.1,4.5,1.7,9,6.2,10c4.5,1.1,9-1.7,10-6.2l6.7-28.6l97.6,22.8l-15.3,65.6c-1.1,4.5,1.7,9,6.2,10c0.6,0.1,1.3,0.2,1.9,0.2
			c3.8,0,7.2-2.6,8.1-6.5l17.2-73.7C407.4,91.5,407,89.2,405.8,87.3z"/>
	</g>
</g>
<g>
	<g>
		<path class="st0" d="M260.9,107.1l-7.6-64.4c-0.3-2.2-1.4-4.2-3.1-5.6c-1.7-1.4-3.9-2-6.2-1.7L104.3,51.9
			c-4.6,0.5-7.9,4.7-7.3,9.3l12.7,107.4c0.5,4.3,4.1,7.4,8.3,7.4c0.3,0,0.7,0,1-0.1c4.6-0.5,7.9-4.7,7.3-9.3l-11.7-99.1l123.2-14.6
			l6.6,56.1c0.5,4.6,4.7,7.8,9.3,7.3C258.2,115.8,261.5,111.6,260.9,107.1z"/>
	</g>
</g>
<g>
	<g>
		<path class="st0" d="M327,165.5l-16.6-69c-0.5-2.2-1.9-4-3.8-5.2c-1.9-1.1-4.2-1.5-6.3-1l-134.6,32.4c-4.5,1.1-7.2,5.6-6.2,10.1
			l8.3,34.5c1.1,4.5,5.6,7.3,10.1,6.2c4.5-1.1,7.2-5.6,6.2-10.1l-6.3-26.4l118.4-28.5l14.6,60.8c0.9,3.8,4.3,6.4,8.1,6.4
			c0.6,0,1.3-0.1,2-0.2C325.3,174.5,328.1,170,327,165.5z"/>
	</g>
</g>
<g>
	<g>
		<path class="st0" d="M448.7,168.2c-0.2-4.4-3.9-7.9-8.3-7.9H72.7c-4.5,0-8.1,3.5-8.3,7.9L47.6,494.1c-0.1,2.3,0.7,4.5,2.3,6.2
			c1.6,1.7,3.8,2.6,6.1,2.6H457c2.3,0,4.5-0.9,6.1-2.6c1.6-1.7,2.4-3.9,2.3-6.2L448.7,168.2z M64.7,486.2L80.6,177h351.8l15.9,309.2
			H64.7z"/>
	</g>
</g>
<g>
	<g>
		<path class="st0" d="M319.2,193.7c-13.8,0-25.1,11.2-25.1,25.1c0,13.8,11.2,25.1,25.1,25.1s25.1-11.2,25.1-25.1
			C344.2,205,333,193.7,319.2,193.7z M319.2,227.1c-4.6,0-8.4-3.7-8.4-8.4s3.7-8.4,8.4-8.4c4.6,0,8.4,3.7,8.4,8.4
			S323.8,227.1,319.2,227.1z"/>
	</g>
</g>
<g>
	<g>
		<path class="st0" d="M193.8,193.7c-13.8,0-25.1,11.2-25.1,25.1c0,13.8,11.2,25.1,25.1,25.1c13.8,0,25.1-11.2,25.1-25.1
			C218.9,205,207.7,193.7,193.8,193.7z M193.8,227.1c-4.6,0-8.4-3.7-8.4-8.4s3.7-8.4,8.4-8.4c4.6,0,8.4,3.7,8.4,8.4
			S198.4,227.1,193.8,227.1z"/>
	</g>
</g>
<g>
	<g>
		<path class="st0" d="M319.2,218.8h-0.6c-4.6,0-8.4,3.7-8.4,8.4c0,1.1,0.2,2.2,0.6,3.2v42.7c0,29.9-24.4,54.3-54.3,54.3
			s-54.3-24.4-54.3-54.3v-46c0-4.6-3.7-8.4-8.4-8.4c-4.6,0-8.4,3.7-8.4,8.4v46c0,39.2,31.9,71,71,71s71-31.9,71-71v-46
			C327.5,222.5,323.8,218.8,319.2,218.8z"/>
	</g>
</g>
</svg>
