<?xml version="1.0" encoding="utf-8"?>
<!-- Generator: Adobe Illustrator 25.0.1, SVG Export Plug-In . SVG Version: 6.00 Build 0)  -->
<svg version="1.1" id="Capa_1" xmlns="http://www.w3.org/2000/svg" xmlns:xlink="http://www.w3.org/1999/xlink" x="0px" y="0px"
	 viewBox="0 0 512 512" style="enable-background:new 0 0 512 512;" xml:space="preserve">
<style type="text/css">
	.st0{fill:#29AAE1;}
</style>
<g>
	<rect x="149.6" y="167.3" class="st0" width="213.9" height="16.5"/>
	<rect x="149.6" y="268.7" class="st0" width="213.9" height="16.5"/>
	<rect x="149.6" y="218" class="st0" width="213.9" height="16.5"/>
	<rect x="149.6" y="65.9" class="st0" width="113.5" height="16.5"/>
	<rect x="149.6" y="116.6" class="st0" width="113.5" height="16.5"/>
	<path class="st0" d="M479.2,309c-7.3-7.3-17.4-11.8-28.5-11.8h-22.1h-15.7V117.4V117v-3.7l-2.9-2.5l-22.5-19.4l-88.6-76.4l-0.8-0.3
		c-1.3-1-2.8-1.6-4.5-1.7l0,0H293H146.5c-12.5,0-24,4.5-32.3,11.7c-8.7,7.5-14.1,17.9-14.1,29.4v243.1H84.4H62.3
		c-11.1,0-21.2,4.5-28.5,11.8c-7.3,7.3-11.8,17.4-11.8,28.5v122.1c0,11.1,4.5,21.2,11.8,28.5c7.3,7.3,17.4,11.8,28.5,11.8h43.4h0
		h301.6h43.4c11.1,0,21.2-4.5,28.5-11.8c7.3-7.3,11.8-17.4,11.8-28.5V337.5C491,326.4,486.5,316.3,479.2,309z M301.3,39.1l81.2,70
		h-51.3c-8.5,0-16.1-2.9-21.5-7.6c-5.1-4.4-8.3-10.5-8.3-17V39.1z M116.6,305.2v-8.1V54c0-6.5,3.2-12.6,8.3-17
		c5.5-4.7,13.1-7.6,21.5-7.6h138.3v55.1c0,11.5,5.4,22,14.1,29.4c8.4,7.2,19.8,11.7,32.3,11.7h65.2v171.5v8.1h-0.1v16.5H116.6V305.2
		z M405.4,483.4H107.6v-20.5h297.9V483.4z M474.5,459.6c0,6.5-2.7,12.5-7,16.8c-4.3,4.3-10.3,7-16.8,7h-28.8V461l0-0.2v0l0-0.2v0
		l0-0.2v0l0-0.2v0l0-0.2l0,0l0-0.2l0,0l0-0.2v0l0-0.2c-0.3-3.4-1.9-6.5-4.2-8.9h0l-0.1-0.1l-0.1-0.1l-0.1-0.1l-0.1-0.1L417,450h0
		l-0.1-0.1l-0.1-0.1h0l-0.1-0.1l-0.1-0.1l-0.1-0.1l-0.1-0.1h0l-0.1-0.1l-0.1-0.1l-0.1-0.1l-0.1-0.1l-0.1-0.1l-0.1-0.1l-0.1-0.1
		l-0.1-0.1l-0.2-0.1l-0.2-0.1l-0.2-0.1l-0.2-0.1h0l-0.2-0.1l-0.2-0.1h0l-0.2-0.1l-0.2-0.1l-0.2-0.1l-0.2-0.1l-0.2-0.1l-0.2-0.1
		l-0.2-0.1l-0.2-0.1l-0.2-0.1l-0.2-0.1l-0.2-0.1l-0.2-0.1l-0.2-0.1l-0.2-0.1l-0.2-0.1l-0.2-0.1l-0.2-0.1l-0.2,0l-0.2,0h0l-0.2,0h0
		l-0.2,0l-0.2,0h0l-0.2,0h0l-0.2,0l-0.2,0l-0.2,0l-0.2,0l-0.2,0l-0.2,0h0l-0.2,0h0l-0.2,0l-0.2,0l-0.2,0l-0.2,0l-0.2,0l-0.2,0
		l-0.2,0l-0.2,0l-0.2,0H105.7h0l-0.2,0h0l-0.2,0h0l-0.2,0h0l-0.2,0h0l-0.2,0h0l-0.2,0h0l-0.2,0h0l-0.2,0h0l-0.2,0h0l-0.2,0l-0.2,0h0
		l-0.2,0h0l-0.2,0h0l-0.2,0h0l-0.2,0h0l-0.2,0h0l-0.2,0l-0.2,0h0l-0.2,0h0l-0.2,0h0l-0.2,0h0l-0.2,0l-0.2,0.1l-0.2,0.1h0l-0.2,0.1h0
		l-0.2,0.1h0l-0.2,0.1l-0.2,0.1l-0.2,0.1h0l-0.2,0.1h0l-0.2,0.1h0l-0.2,0.1h0l-0.2,0.1h0l-0.2,0.1h0l-0.2,0.1h0l-0.2,0.1h0l-0.2,0.1
		h0l-0.2,0.1l-0.2,0.1h0l-0.2,0.1h0l-0.2,0.1l-0.2,0.1l-0.2,0.1l-0.2,0.1h0l-0.2,0.1l-0.1,0.1h0l-0.1,0.1h0l-0.1,0.1h0l-0.1,0.1
		l-0.1,0.1h0l-0.1,0.1h0l-0.1,0.1l-0.1,0.1h0l-0.1,0.1h0l-0.1,0.1h0l-0.1,0.1h0l-0.1,0.1h0l-0.1,0.1L96,450l-0.1,0.1h0l-0.1,0.1
		l-0.1,0.1l-0.1,0.1h0l-0.1,0.1h0c-2.6,2.6-4.3,6.3-4.3,10.3v22.4H62.3c-6.5,0-12.5-2.7-16.8-7c-4.3-4.3-7-10.3-7-16.8V337.5
		c0-6.5,2.7-12.5,7-16.8c4.3-4.3,10.3-7,16.8-7h22.1h15.7v8.1v8.3v8.3h8.3h296.3h8.3V330v-8.3v-8.1h15.7h22.1c6.5,0,12.5,2.7,16.8,7
		c4.3,4.3,7,10.3,7,16.8V459.6z"/>
	<path class="st0" d="M441.8,338.9c-3,0-5.8,1.2-7.8,3.2c-2,2-3.2,4.8-3.2,7.8c0,3,1.2,5.8,3.2,7.8c2,2,4.8,3.2,7.8,3.2
		c3,0,5.8-1.2,7.8-3.2c2-2,3.2-4.8,3.2-7.8c0-3-1.2-5.8-3.2-7.8C447.6,340.1,444.8,338.9,441.8,338.9z"/>
	<path class="st0" d="M441.8,436.1c-3,0-5.8,1.2-7.8,3.2c-2,2-3.2,4.8-3.2,7.8c0,3,1.2,5.8,3.2,7.8c2,2,4.8,3.2,7.8,3.2
		c3,0,5.8-1.2,7.8-3.2c2-2,3.2-4.8,3.2-7.8c0-3-1.2-5.8-3.2-7.8C447.6,437.4,444.8,436.1,441.8,436.1z"/>
	<path class="st0" d="M441.8,387.5c-3,0-5.8,1.2-7.8,3.2c-2,2-3.2,4.8-3.2,7.8c0,3,1.2,5.8,3.2,7.8c2,2,4.8,3.2,7.8,3.2
		c3,0,5.8-1.2,7.8-3.2c2-2,3.2-4.8,3.2-7.8c0-3-1.2-5.8-3.2-7.8C447.6,388.7,444.8,387.5,441.8,387.5z"/>
</g>
</svg>
