<?xml version="1.0" encoding="utf-8"?>
<!-- Generator: Adobe Illustrator 25.0.1, SVG Export Plug-In . SVG Version: 6.00 Build 0)  -->
<svg version="1.1" id="Capa_1" xmlns="http://www.w3.org/2000/svg" xmlns:xlink="http://www.w3.org/1999/xlink" x="0px" y="0px"
	 viewBox="0 0 512 512" style="enable-background:new 0 0 512 512;" xml:space="preserve">
<style type="text/css">
	.st0{fill:#29AAE1;}
</style>
<g>
	<path class="st0" d="M447.8,143.5c22.9,0,41.4,18.6,41.4,41.4v207.9c0.1,22.9-18.5,41.4-41.4,41.4H64.1
		c-22.9,0-41.4-18.6-41.4-41.4V184.9c0-22.9,18.6-41.4,41.4-41.4H447.8 M447.8,130.4H64.1c-30.1,0-54.5,24.5-54.5,54.5v207.9
		c0,30.1,24.5,54.5,54.5,54.5h383.7c14.6,0,28.4-5.7,38.7-16.1c10.3-10.3,15.9-24,15.8-38.5V184.9
		C502.3,154.8,477.9,130.4,447.8,130.4L447.8,130.4z"/>
	<path class="st0" d="M450.7,159c13,0,23.6,10.6,23.6,23.6v212.4c0,13-10.6,23.6-23.6,23.6H61.2c-13.1,0-23.7-10.6-23.7-23.6V182.7
		c0-13,10.6-23.6,23.6-23.6H450.7 M450.7,150.6H61.1c-17.7,0-32,14.3-32,32v212.4c0,17.7,14.4,32,32.1,32h389.5
		c17.7,0,32-14.3,32-32V182.7C482.8,164.9,468.4,150.6,450.7,150.6L450.7,150.6z"/>
	<g>
		<g>
			<path class="st0" d="M78.8,304.9c0-18.2,13.9-28.6,39.4-28.6s39.4,10.4,39.4,28.6v59.1c0,18.2-13.9,28.6-39.4,28.6
				s-39.4-10.4-39.4-28.6V304.9z M104.7,365.3c0,8.2,5.2,11.2,13.4,11.2s13.4-3.1,13.4-11.2v-61.5c0-8.2-5.2-11.2-13.4-11.2
				s-13.4,3.1-13.4,11.2V365.3z"/>
			<path class="st0" d="M251,305.8v14.8c0,18.2-12.7,28.1-38.7,28.1h-12.3v42.7h-26V277.7h38.2C238.4,277.7,251,287.6,251,305.8z
				 M200.1,294v38.5h12.3c8.2,0,12.7-2.6,12.7-10.7v-17.1c0-8.2-4.5-10.7-12.7-10.7L200.1,294L200.1,294z"/>
			<path class="st0" d="M289,325.6h35.6v16.2H289v33.3h44.8v16.2H263V277.7h70.7v16.2H289V325.6z"/>
			<path class="st0" d="M372.9,309.1v82.4h-23.3V277.7h32.5l26.6,68.1v-68.1h23.1v113.8h-26.6L372.9,309.1z"/>
		</g>
	</g>
	<g>
		<g>
			<g>
				<path class="st0" d="M252,242.5c-2.2,0.1-147.9,6.5-167,18.8c-7.7-3.8-32.6-13.6-32.6-13.6s190.8-9.2,199.8-9.6L252,242.5z"/>
			</g>
			<g>
				<path class="st0" d="M91.5,228c-2.9,9.7-11.3,12.1-17.4,12.5c-6.6,0.4-14.3-2.4-15.2-15.6c-0.8-14.1,2.6-32.7,19.9-33.7
					c6-0.4,11.4,1.7,11.8,8c0.2,3.5-0.8,6-4.2,6.2c-1,0.1-2.4-0.1-3.7-1.5c1.6-0.6,2.6-3.8,2.5-5.4c-0.1-1-0.6-4.6-4.8-4.3
					c-8,0.5-12.1,17.2-11.4,28.7c0.5,8.4,2.2,12,9.3,11.6c5-0.3,9.6-2.6,11.7-6.9L91.5,228z"/>
				<path class="st0" d="M113.4,214.2c0.4,0.4,1,0.6,1.9,0.5c3-0.2,4.3-2.4,6.6-3.6l0.4,1.3c-1.9,2.6-5.1,5-8.8,6.3
					c-0.5,13-7.1,19.9-13.6,20.2c-6.9,0.4-10-2.3-10.5-10c-0.9-15.9,6.7-23.2,15.6-23.8C111.1,204.8,113,209.5,113.4,214.2z
					 M108.7,219.6c-1.9,0.1-2.8-1.2-2.9-2.7c-0.1-1.9,0.8-3.9,2.6-4.7c-0.3-2.2-1.1-3.3-2.9-3.2c-6.1,0.4-7.9,13.7-7.6,18.8
					c0.2,3.8,2.1,4.8,4.6,4.7C106.5,232.3,108.3,225.9,108.7,219.6z"/>
				<path class="st0" d="M160.8,224.5c-0.2,0.7-0.2,1.6-0.2,2.4c0.1,1.5,0.7,2.6,2.8,2.5c2.6-0.2,5.1-4.1,6.4-7l3-0.2
					c-2.8,3.7-8.1,12.5-13.1,12.7c-5.1,0.3-8.2-1.7-8.4-6.6c-0.1-1,0-2.1,0.2-3.3l1.8-11.8c0.1-0.6,0.1-1.2,0.1-1.7
					c-0.1-2.3-1.5-3.7-3.2-3.7c-1.4,0.1-2.5,0.6-3.7,1.4c0.3,0.7,0.4,1.5,0.5,2.2c0,0.5,0,0.9-0.1,1.4l-3.5,23l-9.4,0.6l3.4-22.3
					c0.1-0.6,0.1-1.2,0.1-1.7c-0.1-2.3-1.5-3.7-3.2-3.7c-1.6,0.1-2.6,0.7-3.8,1.6l-4,26.4l-9.3,0.6l5-32.7l9.3-0.6l-0.5,3.5
					c2.4-2.1,5.3-3.7,8.2-3.9c2.4-0.2,5.1,1.4,6.7,3.8c2.7-2.4,6-4.7,9.2-4.9c3.6-0.2,7.7,3.3,8,7.7c0,0.6,0,0.9,0,1.5L160.8,224.5z
					"/>
				<path class="st0" d="M165.9,224.4c-0.5-8.2,2.2-22.9,14-23.5c5.3-0.3,8.4,1.7,8.7,6.3c0.5,7.9-7.8,12.9-13.9,14.1
					c-0.1,1-0.1,2.1,0,2.8c0.3,4.3,2.4,5.4,5,5.2c3-0.2,5.5-2.1,8.1-4.6c0.4,7-5.1,9.1-11.5,9.6C170,234.4,166.3,229.9,165.9,224.4z
					 M182.3,204.1c-3.7,0.2-6.2,7.7-7.1,13.9c5.9-0.4,9.8-5.8,9.7-10.4C184.7,206.3,184.2,204,182.3,204.1z"/>
				<path class="st0" d="M216.8,199.1l-3.4,22.3c-0.1,0.7-0.2,1.4-0.1,2.1c0.1,1.4,0.7,2.4,3.4,2.2c2.6-0.2,5.7-3.9,8.2-6.2l2.2-0.1
					c-2.8,3.2-9.6,12.2-14.6,12.5c-5,0.3-8.2-1.7-8.5-6.6c-0.1-0.9,0-2.1,0.2-3.3l3.4-22.3L216.8,199.1z M213.1,185.7
					c2.8-0.2,5.3,2.1,5.4,4.9c0.2,2.8-2.1,5.2-4.9,5.4c-2.8,0.2-5.2-2-5.4-4.8C208.1,188.3,210.3,185.8,213.1,185.7z"/>
				<path class="st0" d="M245.8,229.9c-4.2,0.3-6.7-1.8-7-6.7c-0.1-1,0-2.1,0.2-3.3l1.8-11.8c0.1-0.6,0.1-1.2,0.1-1.7
					c-0.1-2.3-1.5-3.7-3.2-3.7c-1.6,0.1-2.7,0.7-4,1.6l-3.9,26.4l-9.3,0.6l5-32.7l9.3-0.6l-0.6,3.6c2.5-2.1,5.4-3.8,8.2-4
					c3.6-0.2,7.7,3.3,8,7.7c0,0.6,0,0.9,0,1.5c-0.2,2.2-2.3,13.7-2.2,15.1c0.1,1.1,0.7,2,2.5,1.9c0.5,0,1.1-0.1,1.7-0.3
					C250.7,229.2,247.9,229.8,245.8,229.9z"/>
			</g>
		</g>
	</g>
	<g>
		<path class="st0" d="M308.2,217.8l-3.7,26h-14.1l-7.3-48.6h9.9l5.5,38.4l5-38.4h9.8l5.2,38.7l5.3-38.7h9l-7.3,48.6h-13.6
			L308.2,217.8z"/>
		<path class="st0" d="M348.2,215.5h14.1v6.9h-14.1v14.2h17.7v6.9H338V195h27.9v6.9h-17.7V215.5z"/>
		<path class="st0" d="M372.3,202.4V195h9.8v6.6l-4.5,7.7h-4.2l2.7-6.9L372.3,202.4L372.3,202.4z"/>
		<path class="st0" d="M411,243.8c-0.6-1.2-0.9-2.1-0.9-6v-7.7c0-4.5-2.1-6.2-6.7-6.2h-3.6v19.8h-10.2V195H405
			c10.6,0,15.2,3.7,15.2,11.2v3.8c0,5-2.2,8.2-6.7,9.8c5.2,1.6,6.8,5.2,6.8,10.4v7.5c0,2.3,0.1,4.1,1.1,5.9L411,243.8L411,243.8z
			 M399.8,202.1v15h4c3.8,0,6.2-1.2,6.2-5.2v-4.8c0-3.5-1.6-5-5.2-5L399.8,202.1L399.8,202.1z"/>
		<path class="st0" d="M437.3,215.5h14.1v6.9h-14.1v14.2H455v6.9h-27.9V195H455v6.9h-17.7V215.5z"/>
	</g>
	<g>
		<path class="st0" d="M247,62.2c0-0.4,0-0.9,0.1-1.3L77.9,133.1l3.7,8.6l169.2-72.1C248.5,67.9,247,65.3,247,62.2z"/>
		<path class="st0" d="M264.9,60.9c0.1,0.4,0.1,0.9,0.1,1.3c0,3-1.5,5.7-3.8,7.3l169.2,72.1l3.7-8.6L264.9,60.9z"/>
	</g>
	<path class="st0" d="M256,53.3c5,0,9,4,9,9s-4,9-9,9s-9-4-9-9S251,53.3,256,53.3 M256,45.8c-9.1,0-16.5,7.4-16.5,16.5
		s7.4,16.5,16.5,16.5c9.1,0,16.5-7.4,16.5-16.5S265.1,45.8,256,45.8L256,45.8z"/>
</g>
</svg>
