<?xml version="1.0" encoding="utf-8"?>
<!-- Generator: Adobe Illustrator 25.0.1, SVG Export Plug-In . SVG Version: 6.00 Build 0)  -->
<svg version="1.1" id="Capa_1" xmlns="http://www.w3.org/2000/svg" xmlns:xlink="http://www.w3.org/1999/xlink" x="0px" y="0px"
	 viewBox="0 0 512 512" style="enable-background:new 0 0 512 512;" xml:space="preserve">
<style type="text/css">
	.st0{fill:#29AAE1;}
</style>
<path class="st0" d="M412.5,166.2c8.6,0,17.2-3.3,23.8-9.8l4.1-4.1c2.8-2.8,2.8-7.3,0-10.1l-37.5-37.5c-2.8-2.8-7.3-2.8-10.1,0
	l-4.1,4.1c-13.1,13.1-13.1,34.4,0,47.5C395.3,162.9,403.9,166.2,412.5,166.2z M398,119.8l27.4,27.4c-7.6,6.7-19.2,6.4-26.5-0.9
	C391.6,139,391.3,127.4,398,119.8z M492.2,304.6H320.4c1.9-1.1,3.2-3,3.5-5.3l1.9-16.4l16.4,1.9c4,0.5,7.4-2.4,7.9-6.3L352,262
	l16.4,1.9c3.9,0.5,7.4-2.4,7.9-6.3l1.9-16.4l16.4,1.9c2.3,0.3,4.5-0.6,6-2.2l0.9,0.9c3.8,3.8,8.8,5.7,13.9,5.7s10-1.9,13.9-5.7
	c3.7-3.7,5.7-8.6,5.7-13.9c0-2.7-0.5-5.2-1.5-7.6l60.2-60.2c3.8-3.8,5.8-8.8,5.8-14.1c0-5.3-2.1-10.3-5.8-14.1
	c-3.8-3.8-8.8-5.8-14.1-5.8c-4.8,0-9.3,1.7-12.9,4.7l-52.2-52.2c6.7-7.8,6.3-19.6-1.1-27c-3.8-3.8-8.8-5.8-14.1-5.8
	c-5.3,0-10.3,2.1-14.1,5.8l-60.2,60.2c-2.4-1-5-1.5-7.6-1.5c-5.2,0-10.2,2-13.9,5.7c-3.7,3.7-5.7,8.6-5.7,13.9
	c0,5.2,2,10.2,5.7,13.9l0.3,0.3L143.1,304.6h-122c-3.9,0-7.1,3.2-7.1,7.1v164.1c0,3.9,3.2,7.1,7.1,7.1h471.2c3.9,0,7.1-3.2,7.1-7.1
	V311.7C499.4,307.7,496.2,304.6,492.2,304.6z M485.1,440.8c-22.8,3.3-108.2,13.9-188.3,0.5c-98.5-16.4-178.4-21.7-268.6,1.8v-52.6
	c30.5,20,67.5,24.3,97.4,25.6l0.6-14.2c-30.7-1.4-69.3-6-98-29v-24.6c26.6,0.7,50.6,13.2,75.9,26.4c27.8,14.5,56.6,29.6,92.2,31.2
	c2.1,0.1,4.1,0.1,6.2,0.1c38.6,0,77-16.2,111.1-30.5c26.8-11.3,52.2-22,73.1-22.9c24.9-1.2,46.4,7,65.3,14.1
	c12.1,4.5,22.8,8.5,33.1,9.9v33.6c-71,15.8-238.6-0.5-240.3-0.7l-1.4,14.1c4.8,0.5,79,7.7,149.8,7.7c34.2,0,67.6-1.7,91.9-6.6V440.8
	z M146,318.8h24.3c20,16.8,45.2,23.7,46.3,24l3.7-13.7c-0.2,0-11.7-3.2-24.7-10.3h95.9H311c-4.5,2.2-9,4.4-13.5,6.7
	c-20.3,10.3-41.3,20.9-69.4,25.8c-35.4,6.2-52.3-4.8-75.8-19.9c-6.3-4.1-13.1-8.4-20.6-12.7H146z M299.5,304.6l0.1-1l8.4,1H299.5z
	 M395.1,61.6c2.2-2.2,5.9-2.2,8.1,0c2.2,2.2,2.2,5.9,0,8.1l-3.9,3.9l-25,25l10.1,10.1l20-20l57.1,57.1c2.8,2.8,7.3,2.8,10,0l3.9-3.9
	c2.2-2.2,5.9-2.2,8.1,0h0c2.2,2.2,2.2,5.8,0,8.1l-59.2,59.2L380.1,165l-44.2-44.2L395.1,61.6z M313.4,126c1.1-1,2.4-1.6,3.8-1.6
	c1.4,0,2.8,0.5,3.8,1.6l0.2,0.2l97.9,97.9c1,1,1.6,2.4,1.6,3.8c0,1.4-0.6,2.8-1.6,3.8c-2.1,2.1-5.5,2.1-7.6,0l-10-10c0,0,0,0,0,0
	l-39-39l-49-49c-1-1-1.6-2.4-1.6-3.8C311.8,128.4,312.4,127.1,313.4,126z M313.7,154l8,8L273,210.8l10.1,10.1l48.8-48.8l55.9,55.9
	l-14.9-1.7c-3.9-0.5-7.4,2.4-7.9,6.3l-1.9,16.4l-16.4-1.9c-3.9-0.4-7.4,2.4-7.9,6.3l-1.9,16.4l-16.4-1.9c-3.9-0.4-7.4,2.4-7.9,6.3
	l-1.9,16.4l-16.4-1.9c-3.9-0.4-7.4,2.4-7.9,6.3l-1.1,9.6h-122L313.7,154z M98.3,318.8c19.2,7.3,33.6,16.5,46.3,24.6
	c19.7,12.6,37.1,23.9,64.8,23.9c6.5,0,13.5-0.6,21.2-2c30.2-5.3,53.1-16.9,73.4-27.2c20.5-10.4,38.3-19.4,58.6-19.4h122.7v43.5
	c-8.3-1.4-17.7-4.9-28.1-8.8c-20.2-7.6-43.2-16.2-71-15c-23.5,1.1-49.9,12.2-78,24c-36.2,15.2-73.6,31-111.2,29.3
	c-32.5-1.5-59.8-15.8-86.3-29.6c-26.9-14.1-52.5-27.3-82.4-28v-15.3H98.3z M28.2,468.6v-10.8c89.5-24.1,165.8-19.2,266.3-2.4
	c30.2,5,61,6.8,89.2,6.8c46.3,0,85.1-4.7,101.5-7v13.4H28.2z M326.9,397.3l-3.2-13.9c36.3-8.3,88.8-16.8,126.2,6l-7.4,12.2
	C409.6,381.6,360.8,389.6,326.9,397.3z"/>
</svg>
